<?xml version="1.0" standalone="no"?>
<!DOCTYPE svg PUBLIC "-//W3C//DTD SVG 1.1//EN" "http://www.w3.org/Graphics/SVG/1.1/DTD/svg11.dtd" >
<!--
2013-9-30: Created.
-->
<svg>
<metadata>
Created by iconfont
</metadata>
<defs>

<font id="iconfont" horiz-adv-x="1024" >
  <font-face
    font-family="iconfont"
    font-weight="500"
    font-stretch="normal"
    units-per-em="1024"
    ascent="896"
    descent="-128"
  />
    <missing-glyph />
    
    <glyph glyph-name="x" unicode="x" horiz-adv-x="1001"
d="M281 543q-27 -1 -53 -1h-83q-18 0 -36.5 -6t-32.5 -18.5t-23 -32t-9 -45.5v-76h912v41q0 16 -0.5 30t-0.5 18q0 13 -5 29t-17 29.5t-31.5 22.5t-49.5 9h-133v-97h-438v97zM955 310v-52q0 -23 0.5 -52t0.5 -58t-10.5 -47.5t-26 -30t-33 -16t-31.5 -4.5q-14 -1 -29.5 -0.5
t-29.5 0.5h-32l-45 128h-439l-44 -128h-29h-34q-20 0 -45 1q-25 0 -41 9.5t-25.5 23t-13.5 29.5t-4 30v167h911zM163 247q-12 0 -21 -8.5t-9 -21.5t9 -21.5t21 -8.5q13 0 22 8.5t9 21.5t-9 21.5t-22 8.5zM316 123q-8 -26 -14 -48q-5 -19 -10.5 -37t-7.5 -25t-3 -15t1 -14.5
t9.5 -10.5t21.5 -4h37h67h81h80h64h36q23 0 34 12t2 38q-5 13 -9.5 30.5t-9.5 34.5q-5 19 -11 39h-368zM336 498v228q0 11 2.5 23t10 21.5t20.5 15.5t34 6h188q31 0 51.5 -14.5t20.5 -52.5v-227h-327z" />
    

    
    <glyph glyph-name="question" unicode="&#59125;" d="M994.13333333 387.52c0.10666667-264.85333333-214.72-479.57333333-480.10666666-479.36-274.34666667 0.21333333-480.32 226.13333333-479.89333334 479.68C34.56 648.74666666 250.45333333 866.13333333 514.24 866.24c253.97333333 0.10666667 479.14666667-205.22666667 479.89333333-478.72zM514.34666667-26.559999999999945c229.44 0.32 414.82666667 185.70666667 414.18666666 414.29333333-0.64 229.54666667-185.38666667 413.33333333-415.25333333 413.01333333-229.86666667-0.42666667-413.86666667-185.28-413.54666667-415.57333333 0.32-227.2 186.45333333-412.05333333 414.61333334-411.73333333zM475.2 263.46666666c-2.24 53.44 17.06666667 97.81333333 56.32 133.86666667 19.30666667 17.70666667 38.61333333 35.52 57.49333333 53.76 43.2 41.92 28.8 99.2-11.84 130.34666667-42.56 32.53333333-126.18666667 28.69333333-152.42666666-42.77333334-5.12-14.08-8.74666667-28.90666667-11.62666667-43.62666666-4.37333333-21.65333333-22.18666667-35.94666667-44.16-33.81333334-20.16 1.92-36.69333333 20.05333333-34.88 41.17333334 7.14666667 80.32 51.84 146.77333333 141.44 160.96 42.34666667 6.72 84.05333333 4.69333333 123.73333333-12.37333334 49.70666667-21.44 83.2-57.70666667 92.90666667-112.21333333 8.10666667-45.44-3.52-86.4-34.77333333-120.53333333-18.34666667-20.05333333-38.50666667-38.50666667-58.24-57.28-18.66666667-17.70666667-38.50666667-34.66666667-43.62666667-61.33333334-3.30666667-17.38666667-4.48-35.30666667-5.33333333-53.01333333-0.96-23.57333333-15.78666667-40-37.65333334-40-22.08 0-37.12 15.89333333-37.44 39.78666667 0 5.65333333 0.10666667 11.30666667 0.10666667 17.06666666zM554.24 133.44000000000005c-0.10666667-22.4-17.92-39.89333333-40.42666667-39.89333334-22.08 0.10666667-40.42666667 18.56-40.21333333 40.42666667 0.21333333 21.76 19.09333333 40.32 40.85333333 40.10666667 22.18666667-0.10666667 39.89333333-18.34666667 39.78666667-40.64z"  horiz-adv-x="1024" />

    
    <glyph glyph-name="codec" unicode="&#59129;" d="M922.22830477 848.39909297H156.43420045C96.41744671 848.39909297 47.60090703 799.77377596 47.60090703 739.97556372V28.051754200000005A108.72402267 108.72402267 0 0 1 156.43420045-80.39909296999997h765.76678639A108.72402267 108.72402267 0 0 1 1031.03428027 28.051754200000005V739.97556372C1031.03428027 799.77377596 982.21774059 848.39909297 922.22830477 848.39909297z m44.3091365-820.34733877c0-26.79855964-17.40130703-44.11791383-44.30913651-44.11791383H156.43420045c-26.90782948 0-44.30913741 17.31935419-44.30913741 44.11791383V739.97556372c0 26.77124172 17.40130703 44.09059593 44.30913741 44.09059591h765.76678639c26.90782948 0 44.30913741-17.31935419 44.30913743-44.09059591V28.051754200000005z m-386.9810322 235.23179954c12.07437642 0 20.10574874 8.05869025 20.10574876 20.13306666V565.03369342c0 12.07437642-8.03137233 20.13306667-20.10574876 20.13306668-12.0470585 0-20.10574874-8.03137233-20.10574875-20.13306668v-281.61707302c-0.02731791-12.07437642 8.03137233-20.13306667 20.10574875-20.13306665z m80.47763084 0h40.21149841c12.07437642 0 20.13306667 8.05869025 20.13306667 20.13306666V565.03369342c0 12.07437642-8.05869025 20.13306667-20.13306667 20.13306668h-40.21149841c-12.10169432 0-20.13306667-8.03137233-20.13306576-20.13306668v-281.61707302c0-12.07437642 8.03137233-20.13306667 20.13306576-20.13306665z m-160.95526167 0c12.07437642 0 20.10574874 8.05869025 20.10574874 20.13306666V565.03369342c0 12.07437642-8.03137233 20.13306667-20.10574874 20.13306668s-20.10574874-8.03137233-20.10574876-20.13306668v-281.61707302c0-12.07437642 8.03137233-20.13306667 20.10574876-20.13306665z m-201.1667601 0c12.07437642 0 20.10574874 8.05869025 20.10574875 20.13306666V565.03369342c0 12.07437642-8.03137233 20.13306667-20.10574875 20.13306668s-20.10574874-8.03137233-20.10574875-20.13306668v-281.61707302c0-12.07437642 8.03137233-20.13306667 20.10574875-20.13306665zM780.72316916 585.1667600999999c-12.07437642 0-20.10574874-8.03137233-20.10574875-20.13306668v-281.61707302c0-12.07437642 8.03137233-20.13306667 20.10574876-20.13306665 12.0470585 0 20.10574874 8.05869025 20.10574875 20.13306665V565.03369342c0 12.10169432-8.05869025 20.13306667-20.10574875 20.13306668z m1e-8-362.12202178H297.91201814c-12.07437642 0-20.10574874-8.05869025-20.10574875-20.10574965s8.03137233-20.10574874 20.10574875-20.10574877h482.81115103c12.0470585 0 20.10574874 8.05869025 20.10574874 20.10574877s-8.05869025 20.10574874-20.10574875 20.10574965z m-402.3608372 40.23881543h40.23881542c12.07437642 0 20.10574874 8.05869025 20.10574876 20.13306665V565.03369342c0 12.07437642-8.03137233 20.13306667-20.10574876 20.13306668h-40.23881542c-12.0470585 0-20.07843175-8.03137233-20.07843174-20.13306668v-281.61707302c0-12.07437642 8.03137233-20.13306667 20.07843174-20.13306665z"  horiz-adv-x="1084" />

    
    <glyph glyph-name="convert" unicode="&#59130;" d="M512-96C246.92-96 32 118.91999999999996 32 384S246.92 864 512 864s480-214.92 480-480-214.92-480-480-480z m0 880.00000031C291.08 784.00000031 111.99999969 604.9200000000001 111.99999969 384s179.08000031-400.00000031 400.00000031-400.00000031 400.00000031 179.08000031 400.00000031 400.00000031S732.92 784.00000031 512 784.00000031z m316.99999969-334.84000031a39.67999969 39.67999969 0 0 0-22.15999969-22.15999969c-5.68000031-2.4-11.71999969-3.24-17.76-3H231.99999969a40.00000031 40.00000031 0 0 0 0 79.99999969h461.24000062l-49.40000062 49.39999969a41.52 41.52 0 1 0 58.76000062 58.76000062l117.55999969-117.56000062c12.28000031-12.28000031 15.19999969-30.31999969 8.83999969-45.43999969zM192.00000031 304.00000031a40.00000031 40.00000031 0 0 0 39.99999938 39.99999938h560.00000062a40.00000031 40.00000031 0 0 0 0-79.99999969H329.16000031l49.83999938-49.84000031a41.32000031 41.32000031 0 0 0-58.39999969-58.39999969l-116.83999969 116.83999969a40.87999969 40.87999969 0 0 0-11.72000062 31.16000062L192.00000031 304.00000031z"  horiz-adv-x="1024" />

    
    <glyph glyph-name="medal" unicode="&#59182;" d="M512 457.161143c-131.392 0-237.714286-106.375314-237.714286-237.732571 0-131.285943 106.322286-237.714286 237.714286-237.714286 131.320686 0 237.714286 106.428343 237.714286 237.714286C749.714286 350.78582900000004 643.322514 457.161143 512 457.161143zM512 0c-121.000229 0-219.428571 98.428343-219.428571 219.428571s98.428343 219.446857 219.428571 219.446857S731.428571 340.4288 731.428571 219.42857100000003 633.000229 0 512 0zM621.714286 253.21508600000004l-77.143771 0-23.892114 73.3568c-2.428343 7.572114-14.928457 7.572114-17.3568 0l-23.857371-73.3568L402.285714 253.21508600000004c-3.964343 0-7.464229-2.570971-8.6784-6.357943-1.250743-3.7504 0.107886-7.857371 3.320686-10.2144l62.392686-45.321143-23.8208-73.393371c-1.214171-3.785143 0.142629-7.892114 3.357257-10.2144 3.143314-2.322286 7.572114-2.322286 10.7136 0L512 153.03497100000004l62.429257-45.321143c1.570743-1.142857 3.465143-1.749943 5.357714-1.749943s3.785143 0.607086 5.357714 1.749943c3.214629 2.322286 4.571429 6.429257 3.357257 10.2144l-23.8208 73.393371 62.392686 45.321143c3.214629 2.357029 4.571429 6.464 3.320686 10.2144C629.178514 250.642286 625.678629 253.21508600000004 621.714286 253.21508600000004zM859.428571 856.660114c-0.285257 0.554057-0.643657 1.053257-0.643657 1.910857 0 20.196571-16.356571 36.571429-36.571429 36.571429-1.322057 0-2.143086 0.321829-2.642286 0.8576L203.499886 896c-0.4992-0.535771-1.322057-0.8576-2.642286-0.8576C181.143771 895.1424 165.357714 879.482514 164.571429 859.982629l0-234.517943 128.6784-136.232229C214.785829 425.536 164.571429 328.393143 164.571429 219.42857100000003c0-191.857371 155.499886-347.428571 347.428571-347.428571 191.8208 0 347.428571 155.5712 347.428571 347.428571 0 108.964571-50.249143 206.089143-128.714971 269.7856L859.428571 625.464686 859.428571 856.660114zM630.857143 822.857143l0-277.321143c-37.141943 13.553371-77.035886 21.321143-118.857143 21.321143s-81.7152-7.767771-118.857143-21.302857L393.142857 822.857143 630.857143 822.857143zM237.714286 822.857143l100.571429 0 0-274.8032-100.571429 106.481371L237.714286 822.857143zM786.285714 219.42857100000003c0-151.250286-123.035429-274.285714-274.285714-274.285714s-274.285714 123.035429-274.285714 274.285714 123.035429 274.285714 274.285714 274.285714S786.285714 370.678857 786.285714 219.42857100000003zM786.285714 654.535314l-100.571429-106.481371L685.714286 822.857143l100.571429 0L786.285714 654.535314z"  horiz-adv-x="1024" />

    
    <glyph glyph-name="message" unicode="&#59202;" d="M511.1621689 871.2107190199999c-268.03215141 0-485.3158316-190.12254187-485.31583161-424.65013172 0-134.03886645 71.14184437-253.38096 181.99492912-331.2059182v-214.77778382l212.6094075 129.01187988c29.41850707-4.87504828 59.67593051-7.67830957 90.71258027-7.67830957 268.03323668 0 485.31908742 190.12037133 485.31908742 424.65013171 0 234.52758984-217.28693602 424.65013172-485.3201727 424.65013172z m0-778.42865215c-25.56578637 0-52.18645852 2.26605094-79.12294523 6.73086586l-25.9076475 4.29117118-127.41435738-77.31705024V152.19210539000005l-30.15432246 21.1682584c-96.49817297 67.75036488-151.84060664 167.32528805-151.84060664 273.20130879 0 195.07247402 185.91819258 353.77309406 414.43987921 353.77309406 228.52928355 0 414.44639086-158.69953478 414.44639087-353.77309406S739.69036719 92.78206687 511.1621689 92.78206687zM231.51759172 447.47981391c0-18.13166332 7.46125488-36.15588457 20.28593109-48.97839024 12.82359094-12.81707929 30.84781218-20.28484583 48.97839024-20.28484582 18.13708969 0 36.16131093 7.46668125 48.9794755 20.28484582 12.82359094 12.82250567 20.29027219 30.84781218 20.29027218 48.97839024 0 18.13817496-7.46668125 36.16022566-20.29027218 48.9838166-12.81707929 12.81816457-30.84238582 20.28593109-48.98056079 20.28593109-18.13057804 0-36.15371402-7.46668125-48.97839021-20.28593109-12.82359094-12.82359094-20.28484583-30.84564164-20.28484583-48.9838166z m212.90351659 0c0-18.13166332 7.46668125-36.15588457 20.2902722-48.97839024 12.82359094-12.81707929 30.84238582-20.28484583 48.97947551-20.28484582 18.13166332 0 36.1547993 7.46668125 48.97839023 20.28484582 12.82359094 12.82250567 20.28484583 30.84781218 20.28484582 48.97839024 0 18.13817496-7.46125488 36.16022566-20.28376055 48.9838166-12.82467621 12.81816457-30.84889746 20.28593109-48.97839024 20.28593109-18.13817496 0-36.15588457-7.46668125-48.98056077-20.28593109-12.82576148-12.82359094-20.29027219-30.84564164-20.2902722-48.9838166z m212.90677244-2.26822149c0-18.13166332 7.46125488-36.15371402 20.28376054-48.97839023 12.82467621-12.82250567 30.84889746-20.28484583 48.98056078-20.28484582 18.13708969 0 36.1547993 7.46234017 48.97839023 20.28593109 12.82359094 12.82359094 20.29135746 30.84672691 20.29135747 48.97839024 0 18.13708969-7.46668125 36.16131093-20.29135747 48.9794755-12.82359094 12.82359094-30.84238582 20.29027219-48.97839023 20.29027219-18.13166332 0-36.1547993-7.46668125-48.97947551-20.29027219-12.82359094-12.81924984-20.28484583-30.84238582-20.28484581-48.9794755z m0 0"  horiz-adv-x="1024" />

    
    <glyph glyph-name="mail" unicode="&#59208;" d="M898.25049849 765.6509313H125.81024152c-53.10582593 0-96.55637198-42.87768434-96.55637195-95.28440465v-571.70642801c0-52.40791128 43.45054603-95.28559564 96.55637195-95.28559564h772.44025697c53.10582593 0 96.555181 42.87768434 96.55518099 95.28440468V670.36652665c0 52.40672031-43.44935504 95.28440466-96.55518099 95.28440465z m15.24455195-666.99202362c0-7.4436289-7.12206413-13.97615759-15.24455195-13.97615761H125.81024152c-8.12248785 0-15.24455196 6.53252871-15.24455194 13.97615761V670.36652665c0 7.4436289 7.12206413 13.97734857 15.24455194 13.97734858h772.44025697c8.12248785 0 15.24455196-6.53252871 15.24455195-13.97734858v-571.70642801zM156.30172741 613.19588386v-87.11785055l355.72923809-217.79343538 355.72923806 217.79343538v87.11785055L512.0309655 395.40244849z"  horiz-adv-x="1024" />

    
    <glyph glyph-name="comment" unicode="&#59217;" d="M978.7422368 708.6146912l-44.58777067-44.2854176L785.66973547 811.9003968l44.58777066 44.22320106c16.3630752 16.30194987 42.1569408 17.15661547 57.48524907 1.88615787l92.8256064-92.2176256C995.95779413 750.5249472 995.105312 724.9133664 978.7422368 708.6146912L978.7422368 708.6146912zM584.93144213 317.23254293L436.44780267 464.8058496l326.65461973 324.58617706 148.48582293-147.5722144L584.93144213 317.23254293 584.93144213 317.23254293zM564.25028693 296.67254826l-207.8539552-59.00247146 59.37031574 206.57796053L564.25028693 296.67254826 564.25028693 296.67254826zM218.18832427 745.47336106c-51.34104533 0-92.88673173-41.5456864-92.88673174-92.8256064l0-557.19704746c0-51.2668224 41.55987627-92.8277888 92.8277888-92.8277888l557.31820694 0c51.2679136 0 92.82997227 41.56096747 92.82997226 92.82997226L868.27756053 466.9354176l92.88454827 92.82997226 0-495.2758336c0-85.46653333-69.28465173-154.75009387-154.75009387-154.75009386L187.16604693-90.26053760000002c-85.46653333 0-154.75009387 69.28465173-154.75009386 154.75009386L32.41595307 683.6110912c0 85.46653333 69.28465173 154.75009387 154.75009386 154.75009386l495.39808534 0-92.88891414-92.88891413L218.18832427 745.47226986 218.18832427 745.47336106z"  horiz-adv-x="1024" />

    
    <glyph glyph-name="notice" unicode="&#59221;" d="M984.02295002 149.12450249999995L641.96460752 765.6193499999999c-30.4918425 54.8615025-77.931315 86.3356725-130.14351 86.3356725-52.291575 0-99.74097-31.51386-130.14351-86.4348975L39.97645502 149.17411500000003C9.96089252 95.03695500000003 7.91685752 37.982579999999984 34.35039752-7.35332249999999c26.51292-45.4748175 77.19705-71.56107 139.07376-71.56107h677.2205475c61.9064775 0 112.5906075 26.0862525 139.014225 71.4916125 26.4831525 45.2763675 24.429195 102.340665-5.63598 156.5472825zM911.75738252 38.00242500000002c-9.8927325-16.98732-32.1588225-26.731215-61.1126775-26.731215H173.42415752c-28.9439325 0-51.2298675 9.76374-61.16229 26.79075-10.021725 17.18577-7.6105575 41.7439575 6.58854 67.373775l341.711055 616.365855c14.0601825 25.3916775 32.7541725 39.9579075 51.259635 39.9579075 18.49554 0 37.1994525-14.56623 51.3092475-39.9380625l342.028575-616.445235c14.228865-25.6496625 16.6400325-50.188005 6.5984625-67.373775zM512.01954752 265.71387749999997a45.08784 45.08784 0 0 1 45.0977625 45.00846V521.3472449999999a45.0779175 45.0779175 0 0 1-45.0977625 45.00846 45.08784 45.08784 0 0 1-45.0977625-45.00846v-210.614985a45.08784 45.08784 0 0 1 45.0977625-45.0183825zM512.01954752 220.62603750000005a60.17004 60.17004 0 0 1-60.13035-60.13035c0-33.14115 26.9197425-60.13035 60.13035-60.13035 33.14115 0 60.13035 26.9197425 60.13035 60.13035 0 33.14115-26.9197425 60.13035-60.13035 60.13035z"  horiz-adv-x="1025" />

    
    <glyph glyph-name="search" unicode="&#59222;" d="M985.71098775 34.48216506999995c19.12018444-19.11940074 23.1810393-51.62186142 4.08563258-70.74256705l-47.80046236-53.91691993c-19.12018444-19.11940074-54.17994286-17.58979669-73.3014309 1.52960405L672.80346627 110.28950840000005c-1.43447035 1.38746739-1.9834818 3.25089763-3.20408454 4.78050295-66.20471587-44.5006605-145.8882358-70.50262955-231.66695014-70.50262956-229.78257788 0-416.06288744 186.27267771-416.06288743 416.04453734 0 229.8174991 186.28031083 416.05757739 416.06288743 416.05757739 229.78127299 0 416.0602802-186.23877337 416.06028019-416.05757739 0-83.9326326-25.07062858-161.94245064-67.8295785-227.2838067 0.64290398-0.62331653 1.50489007-0.81370244 2.12692846-1.43571534L985.71098775 34.48216506999995zM437.93243159 778.76308559c-175.72000036 0-318.16550756-142.43967086-318.16550755-318.15116772 0-175.70758475 142.44681081-318.15116772 318.16550755-318.15116772 175.71478459 0 318.16550756 142.443583 318.16550754 318.15116772C756.09793913 636.3234160100001 613.64721617 778.76308559 437.93243159 778.76308559zM590.91738243 582.64252142c-35.89696681 44.9335924-91.01322631 73.75352717-152.98495084 73.75352719-66.27904771 0-124.73892754-32.98103205-160.15860622-83.36147615l-40.15343098 27.96189651c44.26514486 63.04890607 117.39965631 104.34691691 200.3120372 104.34691691 77.36489429 0 146.24815732-35.99199219 191.10665075-92.05922676L590.91738243 582.64252142z"  horiz-adv-x="1024" />

    
    <glyph glyph-name="config" unicode="&#59223;" d="M517.33333333 384q0 56.7853125-40.1784375 96.9646875t-96.9646875 40.1784375-96.96375-40.1784375T243.04802083 384t40.1784375-96.9646875 96.96375-40.1784375 96.9646875 40.1784375T517.33333333 384z m411.4284375-274.2853125q0 27.856875-20.356875 48.21375t-48.2146875 20.356875-48.21375-20.356875-20.3578125-48.21375q0-28.393125 20.0896875-48.4828125t48.481875-20.08875 48.4828125 20.08875 20.08875 48.4828125z m0 548.570625q0 27.8578125-20.356875 48.2146875t-48.2146875 20.356875T811.97645833 706.5t-20.3578125-48.2146875q0-28.3921875 20.0896875-48.481875t48.481875-20.08875 48.4828125 20.08875 20.08875 48.481875zM723.04895833 432.75v-99.106875q0-5.3578125-3.75-10.4465625t-8.5715625-5.625l-83.03625-12.856875q-5.8921875-18.75-17.1421875-40.7146875 18.21375-25.7146875 48.21375-61.606875 3.75-5.3578125 3.75-10.7146875 0-6.4284375-3.75-10.1784375-12.3215625-16.0715625-44.1965625-47.9465625t-42.0534375-31.875q-5.893125 0-11.25 3.75l-61.606875 48.2146875q-19.8215625-10.1784375-41.25-16.6078125Q452.51177083 79.17843749999997 446.08333333 54q-3.75-12.856875-16.0715625-12.856875H330.36864583q-5.8921875 0-10.71375 4.0171875t-5.356875 9.375L301.97645833 136.5q-18.2146875 5.356875-40.1784375 16.606875L198.58333333 105.42843749999997q-3.75-3.75-10.7146875-3.75-5.8921875 0-11.25 4.28625-77.1421875 71.25-77.1421875 85.71375 0 4.8215625 3.75 10.1784375 5.356875 7.5 21.96375 28.393125t25.1784375 32.6784375q-12.320625 23.5715625-18.75 43.9284375L50.19020833 319.71562500000005Q44.83333333 320.25 41.08333333 324.8034375T37.33333333 335.25V434.356875q0 5.3578125 3.75 10.4465625t8.5715625 5.625l83.0353125 12.856875Q138.58333333 482.0353125 149.83333333 504q-18.2146875 25.7146875-48.2146875 61.606875-3.75 5.893125-3.75 10.7146875 0 6.4284375 3.75 10.71375 11.78625 16.0715625 43.929375 47.679375t42.320625 31.606875q5.893125 0 11.25-3.75l61.6078125-48.2146875q18.21375 9.643125 41.25 17.143125 5.8921875 57.856875 12.3215625 82.5 3.75 12.856875 16.070625 12.856875h99.643125q5.893125 0 10.7146875-4.0171875t5.356875-9.375L458.40489583 631.5q18.21375-5.356875 40.1784375-16.606875l63.2146875 47.6784375q4.2853125 3.75 10.71375 3.75 5.893125 0 11.25-4.28625 77.143125-71.25 77.143125-85.71375 0-4.8215625-3.75-10.1784375-6.4284375-8.5715625-22.5-28.9284375t-24.106875-32.143125q12.320625-25.7146875 18.21375-43.9284375l81.4284375-12.3215625q5.3578125-1.0715625 9.1078125-5.625t3.75-10.4465625z m342.856875-285.5353125v-75q0-8.5715625-79.8215625-16.6078125-6.4284375-14.46375-16.0715625-27.856875Q997.33333333-32.78531250000003 997.33333333-46.17843749999997q0-2.143125-2.143125-3.75-65.356875-38.03625-66.4284375-38.03625-4.2853125 0-24.643125 25.179375t-27.856875 36.4284375q-10.71375-1.0715625-16.0715625-1.0715625t-16.0715625 1.0715625q-7.5-11.25-27.856875-36.4284375t-24.643125-25.179375q-1.070625 0-66.4284375 38.03625-2.1421875 1.606875-2.1421875 3.75 0 13.393125 27.320625 73.9284375-9.6421875 13.393125-16.070625 27.856875-79.8215625 8.03625-79.8215625 16.6078125v75q0 8.570625 79.8215625 16.606875 6.96375 15.5353125 16.070625 27.856875-27.320625 60.53625-27.320625 73.9284375 0 2.143125 2.1421875 3.75 2.143125 1.0715625 18.75 10.7146875t31.6078125 18.21375 16.070625 8.5715625q4.28625 0 24.643125-24.9103125t27.856875-36.16125q10.7146875 1.0715625 16.0715625 1.0715625t16.0715625-1.0715625q27.3215625 38.03625 49.28625 60l3.21375 1.0715625q2.143125 0 66.4284375-37.5 2.143125-1.606875 2.143125-3.75 0-13.3921875-27.3215625-73.9284375 9.106875-12.3215625 16.0715625-27.856875 79.8215625-8.03625 79.8215625-16.606875z m0 548.570625v-75q0-8.570625-79.8215625-16.606875-6.4284375-14.46375-16.0715625-27.856875Q997.33333333 515.784375 997.33333333 502.393125q0-2.143125-2.143125-3.75-65.356875-38.03625-66.4284375-38.03625-4.2853125 0-24.643125 25.1784375t-27.856875 36.429375q-10.71375-1.0715625-16.0715625-1.0715625t-16.0715625 1.0715625q-7.5-11.25-27.856875-36.429375t-24.643125-25.1784375q-1.070625 0-66.4284375 38.03625-2.1421875 1.606875-2.1421875 3.75 0 13.3921875 27.320625 73.9284375-9.6421875 13.393125-16.070625 27.856875-79.8215625 8.03625-79.8215625 16.606875v75q0 8.5715625 79.8215625 16.6078125 6.96375 15.5353125 16.070625 27.856875-27.320625 60.5353125-27.320625 73.9284375 0 2.143125 2.1421875 3.75 2.143125 1.0715625 18.75 10.7146875t31.6078125 18.21375 16.070625 8.5715625q4.28625 0 24.643125-24.9103125t27.856875-36.16125q10.7146875 1.0715625 16.0715625 1.0715625t16.0715625-1.0715625q27.3215625 38.03625 49.28625 60l3.21375 1.0715625q2.143125 0 66.4284375-37.5 2.143125-1.606875 2.143125-3.75 0-13.393125-27.3215625-73.9284375 9.106875-12.3215625 16.0715625-27.856875 79.8215625-8.03625 79.8215625-16.6078125z"  horiz-adv-x="1098" />

    
    <glyph glyph-name="number" unicode="&#59224;" d="M895.75506781 868.99852021l-767.51109562-1e-8c-52.98321 0-95.93888719-42.95583562-95.93888719-95.93495625l0-767.48060812c0-52.97912063 42.95567719-95.93495625 95.93888719-95.93495625l767.51109562 0c52.98321 0 95.93888719 42.95583562 95.93888719 95.93495625L991.693955 773.06356395C991.693955 826.0417245799999 948.73731875 868.99852021 895.75506781 868.99852021zM895.75506781 53.55139301999998c0-26.51258438-21.50086406-47.96843719-47.97040312-47.96843719l-671.57220844 0c-26.46762 0-47.96944312 21.45585281-47.96944313 47.96843719l0 671.54469281c0 26.49051938 21.50182313 47.96747812 47.96944313 47.96747812l671.57220844 0c26.46953906 0 47.97040313-21.47695875 47.97040312-47.96747812L895.75506781 53.55139301999998zM224.18190031 677.12860771l191.87777344-1e-8 0-47.96747812-191.87777344 0L224.18190031 677.12860771zM224.18190031 485.25869614l239.8472175 0 0-47.96747812-239.8472175 0L224.18190031 485.25869614zM559.96800406 485.25869614l239.84817656 0 0-47.96747812L559.96800406 437.29121802 559.96800406 485.25869614zM559.96800406 677.12860771l239.84817656-1e-8 0-47.96747812L559.96800406 629.1611305199999 559.96800406 677.12860771zM320.1207875 629.1620895799999l95.93888719 0 0-191.8699125-95.93888719 0L320.1207875 629.1620895799999zM703.87729438 629.1620895799999l95.93888718 0 0-191.8699125-95.93888718 0L703.87729438 629.1620895799999zM559.96800406 629.1620895799999l47.97040313 0 0-191.8699125-47.97040313 0L559.96800406 629.1620895799999zM224.18190031 341.35722082999996l239.8472175 0 0-47.96747812-239.8472175 0L224.18190031 341.35722082999996zM368.09023063 293.38974270000006l95.93888718 0 0-95.93495625-95.93888718 0L368.09023063 293.38974270000006zM224.18190031 245.42226458000005l239.8472175 0 0-47.96747812-239.8472175 0L224.18190031 245.42226458000005zM559.96800406 341.35722082999996l47.97040313 0 0-95.93495625-47.97040313 0L559.96800406 341.35722082999996zM559.96800406 245.42226458000005l239.84817656 0 0-47.96747812L559.96800406 197.45478738999998 559.96800406 245.42226458000005zM224.18190031 197.45478738999998l95.93888719 0 0-95.93687437-95.93888719 0L224.18190031 197.45478738999998zM703.87729438 341.35722082999996l95.93888718 0 0-239.83930875-95.93888718 0L703.87729438 341.35722082999996zM224.18190031 149.48730926999997l239.8472175 0 0-47.96939719-239.8472175 0L224.18190031 149.48730926999997z"  horiz-adv-x="1024" />

    
    <glyph glyph-name="character" unicode="&#59225;" d="M515.65848574 878.87123447c-272.67917206 0-494.62733496-221.9481629-494.62733496-494.62733497 0-272.67917206 221.9481629-494.62733496 494.62733496-494.62733593 272.67917206 0 494.62733496 221.9481629 494.62733593 494.62733593 0.48779803 272.67917206-221.9481629 494.62733496-494.62733593 494.62733497z m241.46009011-421.45761137c0-28.78009178-22.43871541-51.21880719-51.2188072-51.2188072s-51.21880719 22.43871541-51.21880623 51.21880719v79.998899h-87.80366948v-306.33724517h75.12091671c28.78009178 0 51.21880719-22.43871541 51.21880719-51.2188072s-22.43871541-51.21880719-51.21880719-51.21880719h-252.67944684c-28.78009178 0-51.21880719 22.43871541-51.21880719 51.21880719s22.43871541 51.21880719 51.21880719 51.21880719h75.1209167v306.33724518h-87.80366947v-79.998899c0-28.78009178-22.43871541-51.21880719-51.21880623-51.21880719s-51.21880719 22.43871541-51.21880719 51.21880719v131.21770521c0 28.78009178 22.43871541 51.21880719 51.21880719 51.21880722h379.9947668c28.29229376 0 51.21880719-21.95091736 51.70660524-50.24321114V457.4136231z"  horiz-adv-x="1032" />

    
    <glyph glyph-name="encrypt" unicode="&#59226;" d="M545.21304594 158.8036227v-62.65074468a29.27604937 29.27604937 0 0 0-33.37469531-26.34844406 29.27604937 29.27604937 0 0 0-33.37469625 26.34844406v62.65074469a77.28876938 77.28876938 0 1 0 67.04215218 0z m348.677745 162.18931219v93.09783563a93.09783562 93.09783562 0 0 1-95.43992063 90.17023125H225.22583A93.09783562 93.09783562 0 0 1 129.78591031 414.09077052v-414.54885469a92.80507594 92.80507594 0 0 1 95.43991969-90.17023125h573.22504031a93.09783562 93.09783562 0 0 1 95.43992063 90.17023125v29.27604937h-125.00872969V78.88000864000003h125.00872969v67.33491281h-125.00872969V195.98420521000003h125.00872969v74.94668531h-125.00872969v50.06204437zM313.05397719 631.61181458A150.47889187 150.47889187 0 0 0 463.24010937 781.50518614h97.19648251a150.47889187 150.47889187 0 0 0 150.47889187-150.47889187v-105.39377719h106.56481875V664.40098958a204.93234375 204.93234375 0 0 1-204.93234375 204.93234375H412.00702344a204.93234375 204.93234375 0 0 1-204.93234375-204.93234375v-137.30466938h105.9792975z"  horiz-adv-x="1024" />

    
    <glyph glyph-name="random" unicode="&#59227;" d="M508.903024-118.20956100000001c-14.460878 0-28.597073 4.096-40.885073 11.88839L87.514537 134.793366a70.181463 70.181463 0 0 0-32.54322 59.691707l0.199805 391.367805c0 24.600976 12.91239 47.703415 33.667122 60.316098L469.666341 877.642927a76.375415 76.375415 0 0 0 79.422439-0.049951l380.628293-231.848586a70.905756 70.905756 0 0 0 33.56722-60.341073l-0.199805-391.367805a70.181463 70.181463 0 0 0-32.618147-59.691707L549.713171-106.34614599999998a76.325463 76.325463 0 0 0-40.835122-11.838439zM125.952 195.58399999999995l379.579317-240.515122a6.343805 6.343805 0 0 1 6.76839 0L892.12878 195.18439l0.224781 389.12-379.67922 231.274147a6.343805 6.343805 0 0 1-6.593561 0l-379.879024-230.899513-0.249756-389.12z m382.326634-193.635902h-0.099902c-19.605854 0.024976-35.465366 16.259122-35.390439 36.214634l0.599414 252.153756c0.049951 19.930537 15.934439 36.039805 35.465366 36.039805h0.099903c19.605854-0.049951 35.465366-16.259122 35.415414-36.214634l-0.599414-252.153757c-0.049951-19.930537-15.934439-36.039805-35.490342-36.039804z m-39.31161 365.917658a42.20878 42.20878 0 0 0-20.48 5.244878l-268.487804 148.929561c-18.706732 10.339902-24.650927 32.568195-13.312 49.626537 11.338927 17.083317 35.665171 22.503024 54.346926 12.163122l268.487805-148.929561c18.681756-10.339902 24.625951-32.568195 13.287025-49.651513-7.442732-11.189073-20.48-17.383024-33.841952-17.383024z m121.431415-9.915317c-11.988293 0-23.676878 6.193951-30.370341 17.383024a36.514341 36.514341 0 0 0 11.938341 49.651513l240.839805 148.904585a35.115707 35.115707 0 0 0 48.75239-12.138146 36.514341 36.514341 0 0 0-11.913366-49.651513l-240.86478-148.904585c-5.74439-3.546537-12.113171-5.244878-18.382049-5.244878z m-247.208585 247.058732c0-24.401171 19.431024-44.206829 43.407609-44.20683s43.40761 19.805659 43.40761 44.20683c0 24.426146-19.431024 44.206829-43.40761 44.206829s-43.40761-19.780683-43.407609-44.206829zM255.700293 255.45053700000005c0-24.401171 19.431024-44.206829 43.407609-44.20683s43.40761 19.805659 43.40761 44.20683c0 24.426146-19.431024 44.206829-43.40761 44.206829s-43.40761-19.780683-43.407609-44.206829zM582.930732 605.034146c0-24.401171 19.431024-44.206829 43.407609-44.206829s43.40761 19.805659 43.40761 44.206829c0 24.426146-19.431024 44.206829-43.40761 44.20683s-43.40761-19.780683-43.407609-44.20683z m12.987317-466.744195c0-24.426146 19.406049-44.206829 43.382634-44.206829 23.976585 0 43.40761 19.780683 43.40761 44.206829 0 24.401171-19.431024 44.206829-43.40761 44.206829s-43.40761-19.805659-43.40761-44.206829z m91.160975 117.085659c0-24.401171 19.406049-44.206829 43.382635-44.20683 23.976585 0 43.432585 19.805659 43.432585 44.20683 0 24.426146-19.456 44.206829-43.432585 44.206829-23.976585 0-43.40761-19.780683-43.40761-44.206829z m91.160976 117.13561c0-24.426146 19.431024-44.206829 43.382634-44.20683 23.976585 0 43.432585 19.780683 43.432586 44.20683 0 24.401171-19.456 44.206829-43.432586 44.206829-23.976585 0-43.40761-19.805659-43.40761-44.206829z"  horiz-adv-x="1024" />

    
    <glyph glyph-name="qrcode" unicode="&#59228;" d="M624.60373333 847.17653333H35.3824v-589.22133333h589.22133333V847.17653333zM512.37333333 370.18666667h-364.75733333V734.944h364.75733333v-364.75733333zM512.37226667 201.83786667000004h112.23253333v-112.23253334H512.37333333V201.83786667000004zM708.77866667 847.17653333H821.01333333v-112.2336H708.77973333V847.17653333zM35.3824 201.83786667000004h392.81493333v-112.23253334H35.38133333V201.83786667000004zM708.77866667 650.76906667H821.01333333v-392.81386667H708.77973333V650.76906667zM231.78986667 650.76906667h196.40746666v-196.40746667H231.78986667V650.76906667zM708.77866667-78.74239999999998h280.5824V201.83786667000004H708.77866667V-78.74133332999997z m84.17493333 196.4064h112.23253333v-112.23253333H792.9536V117.66399999999999zM877.12746667 370.18666667h112.2336v-112.23253334H877.12746667V370.18666667zM877.12746667 847.17653333h112.2336v-392.81493333H877.12746667V847.17653333zM35.3824 33.48906667000006H147.616v-112.23253334H35.38133333V33.48906667000006zM231.78986667 33.48906667000006H652.66133333v-112.23253334H231.78986667V33.48906667000006z"  horiz-adv-x="1024" />

    
    <glyph glyph-name="domain" unicode="&#59229;" d="M512 877.62304687C242.51075359 877.62304687 23.62695312 658.73924641 23.62695312 389.25c0-270.09895059 218.88380046-488.37304688 488.37304688-488.37304688 270.09895059 0 488.37304688 218.88380046 488.37304688 488.37304688C1000.98275105 658.73924641 782.09895059 877.62304687 512 877.62304687zM93.1332296 389.25c0 43.28899675 6.70674597 85.35858513 18.90082956 124.98935681 1.82911254-3.65822509 3.0485209-7.31645015 4.26792926-8.53585851 19.51053375-17.68142121 23.16875882-10.97467524 23.16875882-23.16875883 0-84.13917677 11.58437941-161.57160759 93.28473947-162.79101594 2.43881672 0 7.92615434-67.06745975 46.33751765-69.50627647 29.26580062-2.43881672 84.13917677 12.1940836 93.28473947 0 2.43881672-3.65822509 0-40.24047585 0-93.28473948 0-52.43455945 116.4534983-116.4534983 116.4534983-116.45349829-0.60970418-23.778463 9.75526687-48.77633436 16.46201285-69.50627647C277.26389088-25.958545319999985 93.1332296 160.00122849000002 93.1332296 389.25zM612.60118963-17.42268680999996c6.70674597 35.36284241 18.29112539 86.5779935 39.63077167 103.64971052 51.21515108 41.45988421 15.85230866 90.84592276-23.16875882 93.28473947-24.99787136 1.21940836-18.90082957 44.50840511-46.33751765 46.33751765-27.43668808 2.43881672-62.7995305 39.0210675-93.28473947 69.50627647-18.90082957 18.90082957-37.80165913 23.16875882-69.50627648 23.16875882-28.65609645 0-69.50627647-18.29112539-69.50627647 0 0 59.14130541-21.94935047 76.21302244-23.16875882 93.28473948-1.21940836 13.41349195 7.92615434 24.38816718 46.33751766 23.16875881 21.33964629-0.60970418 2.43881672 46.33751765 23.16875881 46.33751766 20.72994211 0 83.52947261-12.1940836 93.28473948-23.16875882 13.41349195-15.85230866 41.45988421-142.67077802 69.50627647-23.16875884 6.09704179 25.60757554-11.58437941 54.26367198 0 69.50627647 28.04639226 37.80165913 69.50627647 23.16875882 69.50627647 46.33751765 0 18.29112539-4.26792926 57.92189706-23.16875883 69.50627647-9.1455627 5.48733761-31.70461734 3.0485209-46.33751764 0-54.87337616-12.1940836-109.74675233-1.21940836-93.28473948 23.16875883 17.68142121 24.99787136 87.79740186 20.12023792 93.28473948 69.50627647 3.0485209 26.21727972 18.29112539 62.18982632 22.55905464 87.18769767 148.15811563-24.38816718 270.09895059-126.81846935 322.53351003-264.0019088-9.1455627-4.87763344-17.07171702-8.53585851-18.90082956-9.14556268-138.40284875-103.04000634-93.89444365-190.8374082-46.33751765-232.90699659 24.38816718-21.33964629 30.48520898-46.33751765 46.33751765-69.50627647 0.60970418 0 4.87763344-4.26792926 9.75526687-8.53585851C841.84996019 101.46962819999999 738.20025061 13.672226339999952 612.60118963-17.42268680999996z"  horiz-adv-x="1025" />

    
    <glyph glyph-name="host" unicode="&#59230;" d="M760.95390471 585.12768236L263.06648758 585.12768236c-15.92636161 0-28.91623613-12.87771679-28.9162361-28.83466688l0-98.1683778c0-15.95695009 12.98987452-28.83466687 28.91623612-28.83466687l497.8874181 0c15.89577314 0 28.8754515 12.87771679 28.8754515 28.83466687l0 98.1683778C789.82935621 572.2499655500001 776.82928555 585.12768236 760.95390471 585.12768236zM286.22190725 516.7524081700001c-9.83926912 0-17.8126456 7.95298415-17.8126456 17.80244943 0 9.81887681 7.97337648 17.79225327 17.8126456 17.79225328 9.85966144 0 17.80244944-7.97337648 17.80244944-17.79225328C304.02435767 524.69519715 296.08156869 516.7524081700001 286.22190725 516.7524081700001zM713.88855083 465.42506984L588.10904198 465.42506984l-2e-8 41.77356059 125.78970502 0L713.89874698 465.42506984zM760.95390471 413.43498329L263.06648758 413.43498329c-15.92636161 0-28.91623613-12.89810911-28.9162361-28.85505919l0-98.15818162c0-15.93655777 12.98987452-28.84486302 28.91623612-28.84486303l497.8874181 0c15.89577314 0 28.8754515 12.90830527 28.8754515 28.84486303l0 98.15818162C789.82935621 400.5368732 776.82928555 413.43498329 760.95390471 413.43498329zM286.22190725 345.03931678000004c-9.83926912 0-17.8126456 7.92239569-17.8126456 17.80244945 0 9.80868065 7.97337648 17.82284175 17.8126456 17.82284175 9.85966144 0 17.80244944-8.00396494 17.80244944-17.82284175C304.02435767 352.97190862 296.08156869 345.03931678000004 286.22190725 345.03931678000004zM713.88855083 293.72217361L588.10904198 293.72217361l-2e-8 41.78375676 125.78970502 0L713.89874698 293.72217361zM760.95390471 241.73208708000004L263.06648758 241.73208708000004c-15.92636161 0-28.91623613-12.89810911-28.9162361-28.84486302l0-98.15818162c0-15.94675392 12.98987452-28.85505919 28.91623612-28.85505919l497.8874181 0c15.89577314 0 28.8754515 12.90830527 28.8754515 28.85505919l0 98.15818162C789.82935621 228.83397798 776.82928555 241.73208708000004 760.95390471 241.73208708000004zM286.22190725 173.35681289000001c-9.83926912 0-17.8126456 7.90200337-17.8126456 17.80244944 0 9.82907297 7.97337648 17.78205811 17.8126456 17.7820581 9.85966144 0 17.80244944-7.942788 17.80244944-17.7820581C304.02435767 181.25881627 296.08156869 173.35681289000001 286.22190725 173.35681289000001zM713.88855083 122.03967071L588.10904198 122.03967071l-2e-8 41.78375676 125.78970502 0L713.89874698 122.03967071zM597.98909571-8.012018750000038L544.92841475-8.012018750000038 544.92841475 69.18291190000002 479.10217371 69.18291190000002 479.10217371-8.012018750000038 425.98031581-8.012018750000038 425.98031581-28.353305190000015 240.24753913-28.353305190000015 240.24753913-94.21013469000002 425.98031581-94.21013469000002 425.98031581-114.58201058999998 597.98909571-114.58201058999998 597.98909571-94.21013469000002 783.71167625-94.21013469000002 783.71167625-28.353305190000015 597.98909571-28.353305190000015ZM805.8780717 743.4736434c-7.12709746 0.60157223-13.67301601 4.24159214-17.91460715 9.98201532C748.04559945 807.36261869 684.04446645 840.61221136 615.93429133 840.61221136c-4.26198445 0-8.53416408-0.13255004-12.80634466-0.38745295-5.91375783-0.35686448-11.72555408 1.40706661-16.44636362 4.97571342C545.21390614 876.47201515 494.96735839 893.41798941 442.37569962 893.41798941 348.1430293 893.41798941 264.50414169 838.82788797 225.41216427 756.16783037c-3.58903913-7.57572736-10.74672506-12.83693217-19.04637854-13.99929202C102.50796556 727.55747793 22.32556802 638.11699122 22.32556802 530.3030702799999c0-102.78722671 72.87176925-188.82220514 169.67386506-209.28584544l0 63.56269926c0 7.92239569 1.46824355 15.47773171 3.90511898 22.58443687-51.76577208 17.01734737-89.28754537 65.74467179-89.28754537 123.12851414 0 71.48509495 58.15874827 129.64384323 129.65403937 129.64384322 3.60943144 0 7.15768594-0.28549139 10.69574429-0.57098377 20.6063865-1.60079258 39.24491977 11.76633873 44.27161396 31.75076166 17.42519263 69.47645708 79.59102145 117.99985838 151.12709719 117.99985838 40.88649698 0 79.5808253-15.78361542 108.94569131-44.45514379 10.03299608-9.78828833 24.29738719-13.95850739 38.02138398-11.09339339 8.75847952 1.82510802 17.70048886 2.75295627 26.60171357 2.75295627 50.05282177 0 94.75267331-28.14133023 116.64377256-73.43255685 7.69808123-15.92636161 24.52170262-25.40876625 42.13042507-23.59385438 4.38433733 0.43843373 8.75847952 0.65255302 13.00007068 0.65255301 71.49529111 0 129.66423554-58.15874827 129.66423553-129.64384323 0-57.39403852-37.54216561-106.11116577-89.29774153-123.12851413 2.42668027-7.11690131 3.89492283-14.6620402 3.89492283-22.58443687l0-63.55250312c96.79189964 20.45344514 169.70445352 106.47822742 169.70445352 209.27564931C1001.66423581 642.15466023 915.36415733 734.23594553 805.8780717 743.4736434z"  horiz-adv-x="1024" />

    
    <glyph glyph-name="image" unicode="&#59231;" d="M216.38925985 627.1833589400001a1.70930567 1.70930567 0 1 1 116.68859999 0 1.70930567 1.70930567 0 1 1-116.68859999 0z m653.45615998 237.26644014H154.15458015c-66.12278031 0-120.57784015-54.45505985-120.57784015-120.57784016v-711.80046c0-66.12391984 54.45505985-120.57897969 120.57784017-120.57897968h711.80045999c66.12391984 0 120.57897969 54.45505985 120.57897969 120.57897968V747.76119909c0 66.12391984-50.56581968 116.68859999-116.6886 116.68859999z m-595.11185998-116.68859999c66.12278031 0 120.57784015-54.45505985 120.57784014-120.57784015 0-66.12391984-54.45505985-120.57897969-120.57784014-120.57897971-66.12391984 0-120.57897969 54.45505985-120.5789797 120.57897971 0 66.12278031 54.45505985 120.57784015 120.5789797 120.57784015zM154.15458015-26.272801070000014c-31.11620031 0-58.3443 27.22696016-58.3443 58.34429999V59.29845908000004l237.26757969 210.03948 299.49998032-299.50111984h-478.42326001z m774.0351397 62.23354015c0-31.11733983-27.22809969-58.3443-58.34430002-58.34430001h-151.69517998L500.33114 199.32477907999998l252.82567984 252.82567985L932.07896 273.22717923000005V35.96073908000005z"  horiz-adv-x="1024" />

    
    <glyph glyph-name="menu" unicode="&#59430;" d="M417.6996875 866.42427083H91.101875c-31.0340625 0-56.19-25.15875-56.19-56.1890625V490.65833333c0-31.03125 25.1559375-56.19 56.19-56.19h326.5978125c31.0340625 0 56.19 25.15875 56.19 56.19V810.2361458299999c-0.0009375 31.0303125-25.156875 56.188125-56.19 56.188125z m-9.4359375-366.33H100.536875V800.79927083h307.726875v-300.705zM933.935 866.42427083H607.3371875c-31.033125 0-56.19-25.15875-56.19-56.1890625V490.65833333c0-31.03125 25.156875-56.19 56.19-56.19h326.5978125c31.035 0 56.19 25.15875 56.19 56.19V810.2361458299999c0 31.0303125-25.155 56.188125-56.19 56.188125zM924.5 500.09427083H616.773125V800.79927083H924.5v-300.705zM417.6996875 343.16427082999996H91.101875c-31.0340625 0-56.19-25.15875-56.19-56.1890625v-319.57875c0-31.0303125 25.1559375-56.1890625 56.19-56.1890625h326.5978125c31.0340625 0 56.19 25.15875 56.19 56.1890625V286.97520833c-0.0009375 31.0303125-25.156875 56.1890625-56.19 56.1890625zM408.26375-23.16666667000004H100.536875V277.53927082999996h307.726875V-23.16666667000004zM933.935 343.16427082999996H607.3371875c-31.033125 0-56.19-25.15875-56.19-56.1890625v-319.57875c0-31.0303125 25.156875-56.1890625 56.19-56.1890625h326.5978125c31.035 0 56.19 25.15875 56.19 56.1890625V286.97520833c0 31.0303125-25.155 56.1890625-56.19 56.1890625zM924.5-23.16666667000004H616.773125V277.53927082999996H924.5V-23.16666667000004zM154.3128125 748.99020833h168.568125v-28.095H154.3128125z"  horiz-adv-x="1024" />

    
    <glyph glyph-name="more" unicode="&#59431;" d="M512 869.33333333C247.3 869.33333333 32 654.03333333 32 389.33333333s215.3-480 480-480 480 215.3 480 480S776.7 869.33333333 512 869.33333333z m0-897.6C281.8-28.26666666999995 94.4 159.13333333000003 94.4 389.33333333S281.8 806.93333333 512 806.93333333 929.6 619.53333333 929.6 389.33333333 742.2-28.26666666999995 512-28.26666666999995zM283.5 389.33333333m-58.2 0a58.2 58.2 0 1 1 116.4 0 58.2 58.2 0 1 1-116.4 0ZM512 389.33333333m-58.2 0a58.2 58.2 0 1 1 116.4 0 58.2 58.2 0 1 1-116.4 0ZM740.5 389.33333333m-58.2 0a58.2 58.2 0 1 1 116.4 0 58.2 58.2 0 1 1-116.4 0Z"  horiz-adv-x="1024" />

    
    <glyph glyph-name="book" unicode="&#59432;" d="M105.50432266 796.30761626l0-813.94856681c0-44.97101838 36.37890826-81.39876395 81.30108935-81.39876394l674.51968918 0c36.87216504 0 57.17220437 22.86725428 57.17220438 64.8673363 0 28.07656646-24.04423332 57.22918186-57.17220438 57.22918187L265.58323996 23.05680368000003c-22.35934631 0-40.65217242 18.32538494-40.65217242 40.69775422 0 22.37562478 18.29282611 40.70589346 40.65217242 40.70589346l571.60809349 0c44.92543658 0 81.29783289 36.41960633 81.29783288 81.39062376L918.48916633 796.30761626C918.48753811 841.28189014 882.11676908 877.70638021 837.1913325 877.70638021L552.64728869 877.70638021l0-386.42191784c0-5.28256814-2.03814383-10.5814157-5.8962909-14.65444691-7.91489886-7.92303905-20.93818074-7.92303905-28.85796334 0-5.29070832 5.50559246-87.18598455 73.67432963-87.18598456 73.67432963s-81.91155565-68.16873811-87.20226302-73.67432963c-7.91489886-7.92303905-20.93818074-7.92303905-28.85796334 0-3.85814707 4.07303121-5.8962909 9.37187877-5.89629091 14.65444691L308.75053358 877.70638021l-121.94186608-1e-8C141.88323092 877.70638021 105.50432266 841.28189014 105.50432266 796.30761626L105.50432266 796.30761626zM105.50432266 796.30761626"  horiz-adv-x="1024" />

    
    <glyph glyph-name="document" unicode="&#59433;" d="M259.70192391 439.95213269C259.70192391 426.0558323 270.75798811 414.75810288 284.44506331 414.75810288L722.34557266 414.75810288C736.07559656 414.75810288 747.13304839 426.0558323 747.13304839 439.95213269L747.13304839 465.1240966C747.13304839 479.04522453 736.07559656 490.32226304 722.34557266 490.32226304L284.44506331 490.32226304C270.75798811 490.32226304 259.70192391 479.04522453 259.70192391 465.1240966L259.70192391 439.95213269 259.70192391 439.95213269ZM284.44506331 599.50099082L722.34557266 599.50099082C736.07559656 599.50099082 747.13304839 610.75734032 747.13304839 624.6729527699999L747.13304839 649.84491377C747.13304839 663.76190509 736.07559656 675.04446103 722.34557266 675.04446103L284.44506331 675.04446103C270.75798811 675.04446103 259.70192391 663.76190509 259.70192391 649.84491377L259.70192391 624.6729527699999C259.70192391 610.75734032 270.75798811 599.50099082 284.44506331 599.50099082L284.44506331 599.50099082ZM259.70192391 255.22993566000002C259.70192391 241.34052773999997 270.75798811 230.05245625999999 284.44506331 230.05245625999999L642.99545158 230.05245625999999C656.68252386 230.05245625999999 667.83141579 241.34052773999997 667.83141579 255.22993566000002L667.83141579 280.42810408C667.83141579 294.34509247000005 656.68252386 305.62213386999997 642.99545158 305.62213386999997L284.44506331 305.62213386999997C270.75798811 305.62213386999997 259.70192391 294.34509247000005 259.70192391 280.42810408L259.70192391 255.22993566000002 259.70192391 255.22993566000002ZM904.11392379 884.96482744L110.97430492 884.96482744C92.70824503 884.96482744 77.890625 869.91682227 77.890625 851.37784517L77.890625-71.76280958999996C77.890625-90.30316653 92.70824503-105.32910576999996 110.97430492-105.32910576999996L528.93233249-105.32910576999996 528.93233249-21.435438989999966 188.19218637-21.435438989999966C172.87718165-21.435438989999966 160.54786881-8.801181749999955 160.54786881 6.74336507999999L160.54786881 772.80684286C160.54786881 788.37208064 172.87718165 800.98564693 188.19218637 800.98564693L826.88911114 800.98564693C842.16255473 800.98564693 854.5334316 788.37208064 854.5334316 772.80684286L854.5334316 180.74851306000005 669.18917718 180.74851306000005C650.92450486 180.74851306000005 650.60445871 177.27271556999995 650.60445871 158.75580441L650.60445871-105.32910576999996 743.69153683-105.32910576999996 937.01333205 92.72802524999997 937.19205719 92.72802524999997 937.19205719 851.37784517C937.19205719 869.91682227 922.3730515 884.96482744 904.11392379 884.96482744L904.11392379 884.96482744ZM714.2336353-6.29502279999997L714.2336353 59.699656470000036C714.2336353 75.26489231000005 731.09205387 96.88105469000004 746.40844523 96.88105469000004L826.57599425 96.88105469000004 714.2336353-6.29502279999997 714.2336353-6.29502279999997Z"  horiz-adv-x="1024" />

    
    <glyph glyph-name="directory" unicode="&#59434;" d="M891.53892856-57.06525676000001L118.05240837-57.06525676000001c-58.98445678 0-98.5236653 47.02458108-98.52366529 106.00400081L19.52874308 729.85786602c0 58.96833961 39.54021553 107.88869109 98.5236653 107.88869109l285.56833626 0c14.23741922 0 26.64152072-9.74982192 29.97271856-23.59136489l31.64285053-130.68629044 426.31671699 0c58.97035364 0 115.3599615-48.91934447 115.3599615-107.88969909l0-526.64045766C1006.9119852-10.040674699999954 950.52237734-57.06525676000001 891.53892856-57.06525676000001L891.53892856-57.06525676000001M118.05240837 776.03529299c-24.94721348 0-36.81139416-21.24532364-36.81139415-46.17541294l0-680.920128c0-24.96232364 11.86417969-44.28971564 36.81139415-44.28971564l773.49961533 0c24.93311133 0 53.64567633 19.32839902 53.64567633 44.28971564L945.19770003 575.5802097000001c0 24.93311133-28.71357202 46.17843497-53.6607855 46.17843497L440.94083427 621.75864467c-14.24346328 0-26.64756478 9.74982192-29.97775463 23.59136489l-31.64385755 130.68528343L118.05240837 776.03529299 118.05240837 776.03529299M118.05240837 776.03529299M921.34745436 745.18217994L535.65180453 745.18217994c-17.03473833 0-30.85815009 13.82441878-30.85815009 30.85311403 0 17.03473833 13.82341177 30.85815009 30.85815009 30.85815009l385.69565081 0c17.02970227 0 30.85512806-13.82341177 30.85512807-30.85815009C952.20157541 759.00659872 938.3922658 745.18217994 921.34745436 745.18217994L921.34745436 745.18217994M921.34745436 745.18217994"  horiz-adv-x="1024" />

    
    <glyph glyph-name="books" unicode="&#59435;" d="M19.2-61.86666666999997c0-12.8 12.8-25.6 25.6-25.6h166.4c12.8 0 25.6 12.8 25.6 25.6V834.13333333c0 12.8-12.8 25.6-25.6 25.6H44.8C32 859.73333333 19.2 846.93333333 19.2 834.13333333v-896zM83.2 693.33333333c12.8 6.4 38.4 12.8 51.2 12.8h6.4c12.8 0 38.4-6.4 51.2-12.8 0 0 12.8-6.4 12.8-32 0-19.2-12.8-25.6-12.8-25.6-12.8-6.4-38.4-6.4-51.2-6.4h-6.4c-19.2 0-38.4 0-51.2 6.4 0 0-12.8 6.4-12.8 32-6.4 19.2 12.8 25.6 12.8 25.6z m0-140.8c12.8 6.4 32 12.8 51.2 12.8h6.4c12.8 0 38.4-6.4 51.2-12.8 0 0 12.8-6.4 12.8-32 0-12.8-12.8-25.6-12.8-25.6-12.8 0-38.4-6.4-51.2-6.4h-6.4c-12.8 0-38.4 6.4-51.2 12.8 0 0-12.8 6.4-12.8 32-6.4 12.8 12.8 19.2 12.8 19.2z m0-134.4c12.8 6.4 38.4 12.8 51.2 12.8h6.4c12.8 0 38.4-6.4 51.2-12.8 0 0 12.8-6.4 12.8-32 0-19.2-12.8-25.6-12.8-25.6-12.8-6.4-38.4-12.8-51.2-12.8h-6.4c-12.8 0-38.4 6.4-51.2 12.8 0 0-12.8 6.4-12.8 32-6.4 19.2 12.8 25.6 12.8 25.6zM307.2-61.86666666999997c0-12.8 12.8-25.6 25.6-25.6h166.4c12.8 0 25.6 12.8 25.6 25.6V834.13333333c0 12.8-12.8 25.6-25.6 25.6H332.8c-12.8 0-25.6-12.8-25.6-25.6v-896zM742.4 846.93333333c-6.4 12.8-19.2 19.2-32 19.2l-160-51.2c-12.8-6.4-25.6-19.2-19.2-32L793.6-74.66666667000004c6.4-12.8 19.2-19.2 32-19.2l160 51.2c12.8 6.4 19.2 19.2 19.2 32L742.4 846.93333333z"  horiz-adv-x="1024" />

    
    <glyph glyph-name="console" unicode="&#59436;" d="M894.88446839 48.97608948000004V623.3027926H129.11553161v-574.32670312h765.76893678m0 765.76893786a95.72111682 95.72111682 0 0 0 95.72111792-95.72111682v-670.04782104a95.72111682 95.72111682 0 0 0-95.72111792-95.72111682H129.11553161a95.72111682 95.72111682 0 0 0-95.72111792 95.72111682V719.02391052a95.72111682 95.72111682 0 0 0 95.72111792 95.72111682h765.76893678m-335.02390943-670.04781994v95.72111682h239.30279259v-95.72111682h-239.30279259m-163.68311039 191.44223364L204.25660788 527.5816757800001H339.70198906l157.93984337-157.93984335c18.66561785-18.66561785 18.66561785-49.29637572 0-67.96199358L340.65919987 144.69720740000002H205.21381977l190.9636288 191.44223364z"  horiz-adv-x="1024" />

    
    <glyph glyph-name="interface" unicode="&#59481;" d="M909.57190618 468.89031536V786.90523951c0 43.77231542-35.78466661 79.55698203-79.55698202 79.55698203H193.87857387c-43.77231542 0-79.55698203-35.78466661-79.55698204-79.55698203v-318.12142614H34.87111179V150.76888921l198.83920408-119.28222204v-119.28222205h556.68587025V31.486667170000032L989.12888821 150.76888921V468.89031536h-79.55698203zM392.71777795 31.486667170000032L273.43555588 150.76888921h79.55698205V349.60809329999995h79.55698203V150.76888921H512L392.71777795 31.486667170000032z m278.28968412 39.72524003h-79.55698203V270.05111128H512l119.28222205 119.28222205 119.28222207-119.28222205h-79.55698205v-198.83920408z m119.28222206 437.40364818h-119.28222206V667.62301746h-119.28222204V508.61555538h-79.55698203V667.62301746h-119.28222206V508.61555538h-119.28222206V747.17999949h556.68587025v-238.56444411z"  horiz-adv-x="1024" />

    
    <glyph glyph-name="edit" unicode="&#59482;" d="M987.1169202 834.26170127L603.18178275 378.84461798999996a17.52008461 17.52008461 0 0 0-24.70331957-2.10241011l-26.80572969 22.60090946a17.52008461 17.52008461 0 0 0-2.10241011 24.66827976L933.57554141 879.4284794a17.52008461 17.52008461 0 0 0 24.66827977 2.10241013l26.80572968-22.6009085a17.45000404 17.45000404 0 0 0 2.06736935-24.66827976zM225.23851453 383.85536228a17.52008461 17.52008461 0 0 0-17.52008461 17.5200846v35.04017018a17.52008461 17.52008461 0 0 0 17.52008461 17.52008461h175.20084801a17.52008461 17.52008461 0 0 0 17.5200846-17.52008461v-35.04017018a17.52008461 17.52008461 0 0 0-17.5200846-17.5200846h-175.20084801z m543.12262765-157.68076244v-35.0401692a17.52008461 17.52008461 0 0 0-17.52008461-17.52008559h-525.60254304a17.52008461 17.52008461 0 0 0-17.52008461 17.52008559v35.0401692a17.52008461 17.52008461 0 0 0 17.52008461 17.5200846h525.60254304a17.52008461 17.52008461 0 0 0 17.52008461-17.5200846z m-175.20084801 508.08245746H172.67826071a70.08033939 70.08033939 0 0 1-70.08033939-70.08033842v-630.72305165a70.08033939 70.08033939 0 0 1 70.08033939-70.08033843h630.72305068a70.08033939 70.08033939 0 0 1 70.0803394 70.08033843v420.48203444a35.04016921 35.04016921 0 0 0 70.08033842 0v-490.56237287a70.08033939 70.08033939 0 0 0-70.08033842-70.08033938H102.59792132a70.08033939 70.08033939 0 0 0-70.08033842 70.08033938v770.8837285a70.08033939 70.08033939 0 0 0 70.08033842 70.0803394h490.56237285a35.04016921 35.04016921 0 0 0 0-70.0803394z"  horiz-adv-x="1024" />

    
    <glyph glyph-name="power" unicode="&#59483;" d="M512-96.74221802C246.63029566-96.74221802 31.25778198 118.63029566 31.25778198 384c0 123.55075003 47.59347958 235.56368683 124.51223447 320.65505942 13.94152432 19.22968872 20.19117316 26.92156421 35.57492413 35.57492413 1.44222665 1.44222665 6.73039106 1.92296887 9.61484436 2.88445331l15.8644932 0.96148444c33.17121304 0 57.20832395-32.20972861 56.72758172-59.13129282-0.48074222-33.17121304-8.65335992-36.53640857-28.36379086-61.05426169l0 0C187.49900284 560.43239401 151.44333648 476.78324808 151.44333648 384c0-199.02727826 161.52938525-360.55666352 360.55666352-360.55666352s360.55666352 161.52938525 360.55666352 360.55666352c0 92.78324808-36.05566636 176.43239401-93.74473252 240.37110901l0 0c-14.42226654 13.4607821-26.44082199 26.92156421-26.44082199 60.09277725s18.7489465 57.20832395 53.84312842 59.13129281l12.49929767 0c1.44222665-1.44222665 10.5763288-1.92296887 14.42226653-2.8844533 16.34523541-7.69187549 25.47933755-18.26820428 35.57492414-35.57492414 76.91875488-85.09137259 124.51223447-197.10430939 124.51223446-320.65505941C992.74221802 118.63029566 777.36970434-96.74221802 512-96.74221802zM512 323.90722274999996c-33.17121304 0-60.09277725 26.92156421-60.09277725 60.09277725L451.90722275 804.64944077C451.90722275 837.82065381 478.82878696 864.74221802 512 864.74221802s60.09277725-26.92156421 60.09277725-60.09277725L572.09277725 384C572.09277725 350.82878696 545.17121304 323.90722274999996 512 323.90722274999996z"  horiz-adv-x="1025" />

    
    <glyph glyph-name="clock" unicode="&#59485;" d="M554.94066667 863.74333333c-117.241 10.413-228.387-22.051-317.994-84.398l-115.971 90.015-25.442-350.079 327.892 115.323-78.427 60.875c58.799 31.566 127.158 46.909 198.601 40.563 194.868-17.308 338.809-189.313 321.5-384.18s-189.311-338.809-384.178-321.501c-147.319 13.086-265.502 114.596-306.941 247.546l-135.164 12.004c40.334-205.205 211.973-367.821 430.761-387.254 265.397-23.573 499.653 172.463 523.227 437.86 23.573 265.397-172.463 499.653-437.86 523.227zM568.26766667 402.52733333v204.593h-128.427v-333.019h305.603v128.426z"  horiz-adv-x="1024" />

    
    <glyph glyph-name="refresh" unicode="&#59486;" d="M942.91886094 830.75884125l-103.43987063-110.99986125A459.59942531 459.59942531 0 0 1 504.55940937 863.9988C244.39973469 863.9988 32 647.63906999 32 383.99940000000004c0-264.95966906 212.39973469-479.9994 472.55940938-479.9994 196.07975531 0 404.39949469 109.55986313 449.27943843 332.99958375 4.07999531 20.75997375-12.239985 31.79996063-28.55996436 31.79996062h-96.71987907c-20.39997469 0-38.03995219-19.31997562-39.47995032-33.23995875 0-2.75999625 0-4.19999437-1.31999906-4.19999437-43.55994563-130.31983687-143.03982094-162.2397975-283.19964562-162.2397975-170.27978719 0-309.11961375 141.47982281-309.11961375 314.87960625s138.83982656 313.55960812 309.11961375 313.55960812c85.67989313 0 161.9997975-35.999955 220.55972437-94.31988187L590.2393025 467.27929594c-1.19999813 0-1.19999813-1.43999813-2.63999719-1.43999813-27.23996625-30.47996156-16.31997937-51.35993625 14.99998125-51.35993625H942.79886188c29.9999625 0 49.07993906 20.87997375 49.07993812 51.35993625V818.15885719C990.67880188 844.55882437 972.91882343 854.39881219 942.91886094 830.75884125"  horiz-adv-x="1024" />

    
    <glyph glyph-name="leave" unicode="&#59487;" d="M989.94100278 401.68431746l-190.91137112 190.91137112c-9.35815772 9.35815772-24.53162409 9.35918972-33.89081381 0l-38.59156463-38.59156462c-9.35815772-9.35815772-9.35815772-24.53162409 0-33.89081381l84.21206753-84.21206752-383.8464903 0c-13.23537415 0-23.96402519-10.72968305-23.96402519-23.9640252l0-54.57824539c0-13.23434216 10.72968305-23.96402519 23.96402519-23.96402521l383.66382666 0-84.21309953-84.21309952c-9.35815772-9.35815772-9.35815772-24.53265608 0-33.8908138l38.59156463-38.59156463c9.35918972-9.35815772 24.53265608-9.35815772 33.8908138-0.00103199l152.49937415 152.49937415c0.00103199 0.002064 0.00309599 0.00309599 0.00412799 0.00412799l38.59259664 38.59259662c9.35506173 9.35609372 9.35506173 24.53059209-0.002064 33.88874982zM617.01205219 846.32030228L100.81993602 846.32030228c-39.70586651 0-71.89390016-32.18803365-71.89390016-71.89284339l0-779.56143627c0-39.70480975 32.18697688-71.89284339 71.89390016-71.89284339L617.01205219-77.02682076999997c39.70480975 0 71.89284339 32.18803365 71.89284339 71.89284339l0 101.14835157c0 13.23493658-10.72828779 23.96533789-23.96428114 23.96533789l-51.94321605 0c-13.23387981 0-23.96428113-10.72934455-23.96428113-23.96533789l0-38.47473421c-0.26313472-19.62520019-16.24566273-35.45661068-35.93426888-35.45661068L163.73766632 22.08302930000002c-19.85240488 0-35.94695007 16.09348844-35.94695008 35.94695008L127.79071624 712.09834722c0 19.85240488 16.09348844 35.94695007 35.94695008 35.94695007l389.36223882 0c19.68860615 0 35.67113417-15.83035372 35.93426889-35.45661068l0-39.61287111c0-13.23493658 10.72934455-23.96428113 23.96428114-23.96428114l51.94321605 0c13.23493658 0 23.96428113 10.72934455 23.96428113 23.96428114l0 101.45164339C688.90595235 814.13226864 656.7179187 846.32030228 617.01205219 846.32030228z"  horiz-adv-x="1024" />

    
    <glyph glyph-name="plus" unicode="&#59488;" d="M512-97.81094103999999c-129.85079624 0-251.9223525 50.32195875-343.7451675 141.6933-91.85754375 91.44079876-142.4573325 212.99142374-142.45733251 342.3560175 0 129.329865 50.59978875 250.91521875 142.42260376 342.32128876 91.822815 91.37134125 213.89437125 141.6933 343.7451675 141.69329999s251.9223525-50.32195875 343.71043876-141.69329999c91.8922725-91.40606999 142.4573325-212.99142374 142.45733249-342.28656002 0.03472875-129.36459375-50.56506-250.9499475-142.45733249-342.35601749-91.75335751-91.37134125-213.82491375-141.72802874-343.67571001-141.72802875zM512 800.83019396c-111.37510125 0-216.04755375-43.1331075-294.74290125-121.4811675-78.66061875-78.27860249-122.00209875-182.39539501-122.00209875-293.11065 0-110.715255 43.30675126-214.8320475 121.96737-293.07592125 78.6953475-78.34806 183.3678-121.4811675 294.74290125-121.4811675 111.3403725 0 216.04755375 43.1331075 294.74290125 121.4811675 78.66061875 78.31333126 122.00209875 182.39539501 121.96737 293.11065 0 110.715255-43.30675126 214.79731875-121.96737 293.0411925-78.66061875 78.34806-183.3678 121.51589625-294.7081725 121.51589625zM755.10125 420.96712646l-208.3725 0 0 208.3725c0 19.17027-15.55848 34.72875-34.72875 34.72875s-34.72875-15.55848-34.72875-34.72875l0-208.37250001-208.3725 1e-8c-19.17027 0-34.72875-15.55848-34.72875-34.72875s15.55848-34.72875 34.72875-34.72875l208.3725 0 0-208.37249999c0-19.20499874 15.55848-34.72875 34.72875-34.72875002s34.72875 15.52375125 34.72875 34.72875002l0 208.37249999 208.3725 0c19.20499874 0 34.72875 15.55848 34.72875 34.72875s-15.52375125 34.72875-34.72875 34.72874999z"  horiz-adv-x="1024" />

    
    <glyph glyph-name="plus-opp" unicode="&#59489;" d="M512 864.74221802C247.59178009 864.74221802 31.25778198 648.4082199100001 31.25778198 384s216.3339981-480.74221802 480.74221802-480.74221802 480.74221802 216.3339981 480.74221802 480.74221802-216.3339981 480.74221802-480.74221802 480.74221802z m256.39584992-512.79169891H544.04948089v-224.34636902c0-16.02474091-16.02474091-32.04948089-32.04948089-32.04948091s-32.04948089 16.02474091-32.04948089 32.0494809V351.95051910999996H255.60415008c-16.02474091 0-32.04948089 16.02474091-32.04948089 32.04948089s16.02474091 32.04948089 32.0494809 32.04948089h224.34636902V640.39584992c0 16.02474091 16.02474091 32.04948089 32.04948089 32.04948089s32.04948089-16.02474091 32.04948089-32.0494809v-224.34636902h224.34636902c16.02474091 0 32.04948089-16.02474091 32.04948091-32.04948089s-16.02474091-32.04948089-32.0494809-32.04948089z"  horiz-adv-x="1024" />

    
    <glyph glyph-name="minus" unicode="&#59490;" d="M512-16.583147919999988C291.05200334-16.583147919999988 111.41779103 163.15904360000002 111.41779103 384S291.05200334 784.58314792 512 784.58314792 912.58314792 604.94799666 912.58314792 384 732.94799666-16.583147919999988 512-16.583147919999988zM512 864.74221802C246.94766063 864.74221802 31.25778198 649.05233937 31.25778198 384c0-265.05140042 215.68987865-480.74221802 480.74221802-480.74221802 265.05140042 0 480.74221802 215.69081761 480.74221802 480.74221802C992.74221802 649.05233937 777.05140042 864.74221802 512 864.74221802zM296.73922134 435.4009204c-22.10569149 0-40.0264844-17.92079292-40.0264844-40.0264844s17.92079292-40.02554545 40.0264844-40.02554545l430.52155732-0.10797921c22.10569149 0 40.0264844 17.92079292 40.0264844 40.0264844 0.10704026 22.21273175-17.92079292 40.13352467-40.0264844 40.13352466H296.73922134z"  horiz-adv-x="1024" />

    
    <glyph glyph-name="minus-opp" unicode="&#59491;" d="M512 864.74221802A480.74221802 480.74221802 0 1 1 992.74221802 384 480.74221802 480.74221802 0 0 1 512 864.74221802z m257.63149264-514.79961831H254.60019037a34.05740029 34.05740029 0 1 0 0 68.11480058h515.03130227a34.05740029 34.05740029 0 1 0 0-68.11480058z"  horiz-adv-x="1024" />

    
    <glyph glyph-name="up" unicode="&#59492;" d="M512 662.326125c15.876 0 31.255875-5.9535 43.162875-17.8605l435.101625-434.6055c23.814-23.814 23.814-62.51175 0-86.32575s-62.51175-23.814-86.32575 0l-391.93875 391.442625-391.93875-391.442625c-23.814-23.814-62.51175-23.814-86.32575 0s-23.814 62.51175 0 86.32575l435.101625 434.6055c11.907 11.907 27.287844 17.8605 43.162875 17.8605z"  horiz-adv-x="1024" />

    
    <glyph glyph-name="down" unicode="&#59493;" d="M987.923 631.185c-25.053 25.053-66.047 25.053-91.099 0l-385.275-385.275-383.377 383.377c-25.053 25.053-66.047 25.053-91.099 0s-25.053-66.047 0-91.099l425.131-425.131c25.053-25.053 75.536-23.155 100.589 1.898l425.131 425.131c25.054 25.054 25.054 66.047 0.001 91.1z"  horiz-adv-x="1024" />

    
    <glyph glyph-name="left" unicode="&#59499;" d="M233.673875 389.33333333c0 15.876 5.9535 31.255875 17.8605 43.162875l434.6055 435.101625c23.814 23.814 62.51175 23.814 86.32575 0 23.814-23.814 23.814-62.51175 0-86.32575l-391.442625-391.93875 391.442625-391.93875c23.814-23.814 23.814-62.51175 0-86.32575-23.814-23.814-62.51175-23.814-86.32575 0l-434.6055 435.101625c-11.907 11.907-17.8605 27.286875-17.8605 43.162875z"  horiz-adv-x="1024" />

    
    <glyph glyph-name="right" unicode="&#59501;" d="M301.146875 4.836458330000028L679.4421875 389.33333333 301.146875 773.83020833c-24.80625 24.80625-24.80625 68.2171875 0 93.0234375 24.80625 24.80625 68.2171875 24.80625 93.0234375 0L822.078125 438.94583333c12.403125-12.403125 18.6046875-31.0078125 18.6046875-49.6125S834.48125 358.32552082999996 822.078125 339.72083333l-427.9078125-427.9078125c-24.80625-24.80625-68.2171875-24.80625-93.0234375 0C270.1390625-63.380729169999995 270.1390625-19.96979166999995 301.146875 4.836458330000028z"  horiz-adv-x="1024" />

    
    <glyph glyph-name="left-arrow" unicode="&#59502;" d="M395.64871254 772.99636644l-340.80634872-340.80634873c-26.61697583-26.61697583-26.61697583-69.76305959 0-96.38003542l340.80634872-340.80634873c26.61697583-26.61697583 69.76305959-26.61697583 96.38003543 0s26.61697583 69.76305959 0 96.38003542l-224.45506127 224.45506128h653.39393178c37.65910153 0 68.16126974 30.50216821 68.16126973 68.16126974s-30.50216821 68.16126974-68.16126973 68.16126974h-653.39393178l224.45506127 224.45506128c13.29144761 13.32552824 19.97125203 30.74073266 19.97125203 48.1900177s-6.64572379 34.89857011-19.97125203 48.19001772c-26.61697583 26.61697583-69.76305959 26.61697583-96.38003543 0z"  horiz-adv-x="1024" />

    
    <glyph glyph-name="right-arrow" unicode="&#59503;" d="M629.05575372-4.996366439999974l340.80634872 340.80634873c26.61697583 26.61697583 26.61697583 69.76305959 0 96.38003542l-340.80634872 340.80634873c-26.61697583 26.61697583-69.76305959 26.61697583-96.38003542 0s-26.61697583-69.76305959 0-96.38003542l224.45506126-224.45506128h-653.39393177c-37.65910153 0-68.16126974-30.50216821-68.16126974-68.16126974s30.50216821-68.16126974 68.16126974-68.16126974h653.39393177l-224.45506126-224.45506128c-13.29144761-13.32552824-19.97125203-30.74073266-19.97125203-48.1900177s6.64572379-34.89857011 19.97125203-48.19001772c26.61697583-26.61697583 69.76305959-26.61697583 96.38003542 0z"  horiz-adv-x="1024" />

    
    <glyph glyph-name="turn-on-opp" unicode="&#59506;" d="M1326.90883738 399.62488058c0 176.0482997-144.04560602 320.08578745-320.10608255 320.08578745H366.64944513c-176.04018141 0-320.08578745-144.03748775-320.08578744-320.08578745 0-176.03409302 144.04560602-320.06752225 320.08578744-320.06752226h640.15533959c176.06047652-0.00202988 320.10405267 144.0334292 320.10405266 320.06752226z m-72.03193559 0c0-136.01905658-112.03682394-248.07211707-248.07211707-248.07211705-136.01905658 0-248.0558817 112.05306048-248.0558817 248.07211705 0 136.04949861 112.03479525 248.06197012 248.0558817 248.06196891 136.03529311 0 248.07211707-112.01247029 248.07211707-248.06196891zM654.72442184 319.60089608z"  horiz-adv-x="1365" />

    
    <glyph glyph-name="turn-off-opp" unicode="&#59507;" d="M46.84575425 400.23574988c0-176.15789103 143.68639002-319.84428108 319.84428106-319.84427986H1007.19038418c176.15789103 0 319.84428108 143.68639002 319.84427989 319.84427986s-143.68639002 319.84428108-319.84427989 319.84428109h-640.50034887c-176.15789103 0-319.84428108-144.49817796-319.84428106-319.84428109z m71.43730167 0c0 136.38030241 112.026677 248.4069794 248.40697939 248.40697942s248.4069794-112.026677 248.40697942-248.40697942-112.026677-248.4069794-248.40697942-248.40697938-248.4069794 112.026677-248.40697939 248.40697938z"  horiz-adv-x="1365" />

    
    <glyph glyph-name="eye-open" unicode="&#59931;" d="M512 537.5935999999999c32 0 57.5936-25.5936 57.5936-57.5936S544 416 512 416s-57.5936 32-57.5936 64S480 537.5935999999999 512 537.5935999999999c-89.5936 0-160-70.4064-160-153.5936s70.4064-153.5936 160-153.5936S672 300.99839999999995 672 384 601.5936 537.5935999999999 512 537.5935999999999zM512 768c-364.8128 0-448-384-448-384s102.4064-384 448-384 448 384 448 384-83.1872 384-448 384z m0-672c-160 0-288 128-288 281.5936s128 281.5936 288 281.5936 288-128 288-281.5936c0-160-128-281.5936-288-281.5936z"  horiz-adv-x="1024" />

    
    <glyph glyph-name="eye-close" unicode="&#59932;" d="M353.13536 374.14144c0-87.6736 71.06944-158.74432 158.7456-158.74432 18.4064 0 36.0768 3.14368 52.51456 8.90496L408.38912 494.51392C374.56 465.4016 353.13536 422.27584 353.13536 374.14144zM511.87968 775.81696c-66.9952 0-125.19552-14.83264-175.52-38.784l58.45888-101.2544c35.74144 16.01664 75.35872 24.93312 117.06112 24.93312 158.2656 0 286.56512-128.30464 286.56512-286.57152 0.00256-95.4944-46.72128-180.06656-118.54336-232.13952l54.56128-94.5024c161.21728 116.24832 236.81792 326.64192 236.81792 326.64192S884.68992 775.81696 511.87968 775.81696zM511.87968 532.8870400000001c-18.4064 0-36.0768-3.14368-52.51584-8.90496L615.37024 253.77279999999996c33.8304 29.11104 55.25504 72.2368 55.25504 120.36864-1.58976 6.69184-61.94048 45.10464-136.5056 27.06688C542.53952 428.86784 511.87968 532.8870400000001 511.87968 532.8870400000001zM511.87968 87.57632000000001c-158.2656 0-286.57024 128.3008-286.57024 286.56512 0 95.49696 46.72384 180.0704 118.5472 232.14592L285.15072 707.968C112.89984 593.45024 52.48 374.14144 52.48 374.14144s105.8304-401.67552 459.39968-401.67552c64.65664 0 122.11584 16.92288 172.61952 43.80928l-55.55968 96.23424C593.19808 96.49279999999999 553.5808 87.57632000000001 511.87968 87.57632000000001zM250.355963 800.225257l23.27808 13.44 499.74848-865.564367-23.27808-13.44-499.74848 865.564367Z"  horiz-adv-x="1024" />

    
    <glyph glyph-name="back" unicode="&#59933;" d="M449.72948513 0.6696743500000366L39.95045733 420.3493799 449.72948513 838.78050975v-237.03594181c237.45799556 0 538.99782003-114.3062261 538.99782003-657.38389912-97.37131907 328.65677842-509.82335401 295.17384695-538.99782003 295.17384694v-238.86484141z"  horiz-adv-x="1024" />

    
    <glyph glyph-name="heart" unicode="&#59937;" d="M511.99803125-34.44010416000003c-10.42354687 0-20.85595313 2.45995313-30.16814062 7.11309375-0.52959375 0.26282813-1.43521875 0.6890625-2.68340626 1.28264062-85.34334375 40.5405-169.50642188 94.460625-236.98631249 151.83098438-60.79401563 51.68559375-109.2065625 106.77515625-143.89396876 163.73896875-43.78499999 71.90367188-65.98659375 147.20934375-65.98659375 223.82620312 0 161.19042187 131.14532812 292.32689062 292.343625 292.32689063 68.78025 0 135.1665-24.40757813 187.36987501-67.99471875 52.2073125 43.58615625 118.59848437 67.99471875 187.38464062 67.99471875 161.19928125 0 292.343625-131.13745313 292.343625-292.32689063 0-76.6276875-22.2075-151.94517187-66.00529687-223.8586875-34.69528125-56.96873437-83.11865625-112.06321875-143.92546876-163.75275C714.29890625 68.36900520999995 630.1446875 14.45970834000002 544.82890625-26.056182290000038c-1.24129687-0.58964063-2.142-1.01292187-2.67257812-1.27673437C532.85201562-31.98113540999998 522.41960938-34.44010416000003 511.99803125-34.44010416000003zM324.62323438 726.9286770900001c-117.77653125 0-213.593625-95.81020313-213.59362501-213.57689063 0-256.5005625 305.60217187-422.38251562 400.97039063-467.8183125 95.39282812 45.43776562 400.971375 211.28920313 400.971375 467.8183125 0 117.7666875-95.81807812 213.57689063-213.593625 213.57689063-60.17779688 0-117.83854687-25.56421875-158.1969375-70.1386875l-29.18967187-32.23729688-29.18770313 32.23828125C442.44701563 701.36445834 384.79217187 726.9286770900001 324.62323438 726.9286770900001z"  horiz-adv-x="1024" />

    
    <glyph glyph-name="heart-opp" unicode="&#59938;" d="M705.71432861 803.73709909a284.91410753 284.91410753 0 0 1-194.12329623-75.72717069 284.70962373 284.70962373 0 0 1-194.12329623 75.72717069C161.37842843 803.73709909 34.87111179 680.3652008500001 34.87111179 528.09292424c0-236.24696092 327.1059335-476.03830789 439.36754478-551.42467222 23.31115426-15.60893077 49.82588818-16.56318854 70.75139798-2.59012827 108.37641891 72.3191072 443.32089843 314.9732275 443.32089842 554.01480049 0 152.27227661-126.50731665 275.64417485-282.59662436 275.64417485z m0 0"  horiz-adv-x="1024" />

    
    <glyph glyph-name="star" unicode="&#59939;" d="M784.05439531-96a93.24915 93.24915 0 0 0-42.89460937 10.72365187L531.81544437 24.75764905999995l-208.87809656-110.03399719a93.24915 93.24915 0 0 0-133.81252968 96.97911657l40.09713468 233.122875L59.974745 409.87663875a93.24915 93.24915 0 0 0 50.82078656 156.65857219l233.122875 34.03594031L451.621175 812.7129675a93.24915 93.24915 0 0 0 165.05099625 0l104.43904781-211.67557031 233.122875-34.03594031a93.24915 93.24915 0 0 0 50.82078656-157.12481813l-169.24720687-165.05099531 40.09713469-233.122875a93.24915 93.24915 0 0 0-90.45167625-107.70276844zM531.81544437 795.9281203099999a23.3122875 23.3122875 0 0 1-21.44730468-13.52112656L397.53666875 554.87906719A34.03593937 34.03593937 0 0 0 372.3593975 537.627975l-251.772705-36.36716906a24.24477938 24.24477938 0 0 1-13.52112656-41.49587156l181.8358425-177.63963094a34.03593937 34.03593937 0 0 0 9.79116094-29.83972781l-42.89460938-250.37396813a24.24477938 24.24477938 0 0 1 34.96843125-25.64351625l225.19669781 118.42642031a34.03593937 34.03593937 0 0 0 31.70471063 0l225.19669781-118.42642031a24.24477938 24.24477938 0 0 1 34.96843125 25.64351625l-42.89460937 250.37396813a34.03593937 34.03593937 0 0 0 9.79116093 29.83972781l181.8358425 177.63963094a24.24477938 24.24477938 0 0 1-13.52112656 41.49587156L691.73773719 537.627975a34.03593937 34.03593937 0 0 0-25.64351625 18.64983l-112.36522594 226.12918875a23.3122875 23.3122875 0 0 1-21.91355062 13.52112656z"  horiz-adv-x="1066" />

    
    <glyph glyph-name="star-opp" unicode="&#59940;" d="M772.465625-79.62881249999998c-10.418625 0-22.5736875 3.472875-32.9923125 8.68218749l-225.73687499 112.86843752-227.47331251-112.86843752c-22.5736875-12.1550625-52.093125-10.418625-72.93037501 5.20931251-20.83725 15.6279375-32.99231251 43.4109375-27.78299998 69.4575l46.8838125 243.10125L53.5805 413.51943749C34.4796875 432.62025001 27.5339375 462.1396875 34.4796875 486.4498125c8.6821875 26.0465625 29.51943749 45.14737499 57.30243751 48.62025l248.31056249 45.147375 111.13200001 225.736875c12.1550625 24.310125 36.4651875 39.9380625 62.51175 39.9380625s52.093125-15.6279375 62.51175-39.9380625l111.13199999-225.736875 248.31056251-43.4109375c26.0465625-3.472875 48.62025001-22.5736875 55.56599999-48.62025 8.6821875-26.0465625 1.73643751-53.8295625-17.364375-72.930375L795.03931251 246.8214375l45.14737499-243.10125c5.2093125-27.783-6.94575-53.8295625-27.783-69.4575-10.418625-8.6821875-24.310125-13.89149999-39.9380625-13.8915z"  horiz-adv-x="1024" />

    
    <glyph glyph-name="debug" unicode="&#59941;" d="M361.3357333 781.48788056c74.63402887-59.1552675 70.19438442-123.89008866-17.86657064-232.21742217-88.20494353-108.43532536-151.47588192-126.82985372-226.24190072-67.62659006l10.31917458 12.52699776-10.31917458-12.53899631c-42.53659692 33.62131041-50.7679387 86.4410843-30.98152182 145.18838447a99.73602155 99.73602155 0 0 0 0.8879289 125.02999786c29.99760061 36.89704856 81.25749942 47.72018278 123.62610979 28.04175675 53.85169223 31.82145455 107.94336427 35.33717348 150.57595449 1.5958717z m126.01391906-602.2798169l3.53971603-1.43988469c-20.79433617-49.05207563-18.19054519-97.15622766 23.41012767-144.04847625a272.31821466 272.31821466 0 0 1 26.81785477-54.64362881l5.05159594-7.90736724-4.46364352-8.21934225c-1.19990391-2.87976937-2.25581934-4.88360939-4.07967328-7.16342681a47.63618902 47.63618902 0 0 0-66.35469192-7.15142827c-83.00935912 65.69474428-103.32373373 152.95176422-75.95392318 240.67674619-5.55555558 2.2438208-11.03911692 4.61963053-16.48668164 7.16342681l-76.03791693-93.62851017c-16.31869411-20.12238998-46.0043197-23.30213583-66.36669047-7.19942344a45.89632786 45.89632786 0 0 0-7.28341721 65.15478704l70.32637435 86.51307951a1311.06311536 1311.06311536 0 0 0-22.55819541 18.38252883c-71.95824366-19.19846447-154.23566091-2.37580973-241.696665 66.81065541a45.99232017 45.99232017 0 0 0-7.18742489 65.22678126c16.33069364 19.99040105 46.14830817 23.20614352 66.18670538 7.07943403 62.4430042-49.34005256 115.81473487-60.93112528 155.21958211-51.03191756 4.83561323 3.09575208 50.65994686 25.95392395 68.33453386 36.83705287 35.15718741 21.64626844 67.47060206 49.38804872 98.78809696 87.89296852 39.80081602 49.00407947 60.079194 90.23278163 77.17782516 142.26061992 0.77993803 5.42356566 1.58387316 8.87928989 3.34773239 12.598992 4.85961131 11.11111116 8.12334994 28.49772023 4.48764061 51.83585269-6.11951091 39.23686069-31.14950836 79.87760944-81.95344369 120.08639278a45.86033123 45.86033123 0 0 0-7.31941383 65.13078994 47.51619863 47.51619863 0 0 0 66.33069286 7.2234225c87.71298342-69.37844977 122.0902328-145.02039792 118.56251532-218.63450995 6.70746333-4.87160986 14.25485939-10.55915536 22.94216465-17.27861724l70.25438011 86.33309344a47.56419478 47.56419478 0 0 0 66.34269239 7.27141767 45.93232547 45.93232547 0 0 0 7.30741528-65.21478272l-76.24190109-93.74849958c3.73170164-4.75161947 7.30741528-9.527238 10.70314383-14.33885315 80.89752825 45.29637591 171.70626375 44.60043164 254.70362433-21.07031456a45.90832739 45.90832739 0 0 0 7.25941912-65.11879041c-16.28269748-20.06239528-46.0043197-23.27813775-66.36669047-7.18742489-52.57979409 41.63666948-104.12766984 39.86081072-152.91576759 10.2951765a330.47756142 330.47756142 0 0 0 15.31077581-64.95080386l2.12382942-16.12671047-16.46268257-1.9318448a277.40580722 277.40580722 0 0 1-122.39020829-45.04439658l-10.09119332-6.76745901-9.51523847 7.52339897-8.31533457 6.56347486-62.3830095 49.40004726c-26.74586053 21.16630688-46.72426205 25.4139667-49.91600742 21.49028143-3.26373863-4.04367666 5.36357095-22.5221978 32.2054238-43.72450229 0.39596878-0.31197502 46.60427166-36.93304519 60.6311498-48.0921525l14.63882864-11.63906887-12.17902514-12.62299008c-35.87712975-37.19702405-60.59515219-83.34533222-70.96232293-133.65730744l-16.10271239 3.19174439-0.41996587-3.35973093zM1002.72042195-20.359970770000018c13.85889159-13.84689206 16.78665712-34.49723977 8.86729135-49.89200934-2.50779966-6.73146141-5.98752098-12.41900691-10.89512846-17.06263453a31.13750883 31.13750883 0 0 0-6.71946286-4.99160123l-4.9796017-4.90760747a46.05231586 46.05231586 0 0 0-64.41084661 0.02399807l-73.53011826 72.59419322a200.83993256 200.83993256 0 0 0-97.82817385-25.52195854c-111.81905437 0-202.38780909 89.71682245-202.38780811 200.32397437 0 110.57115431 90.56875472 200.32397437 202.38780811 200.32397339s202.37580956-89.75282006 202.37581055-200.32397339c0-34.83321286-9.17926537-68.39452856-26.24190089-98.18814501l73.36213073-72.37820954z m-249.58003317 76.01391886c52.62779025 0 95.34437227 42.29661614 95.34437227 94.58843232 0 52.29181617-42.716583 94.5884333-95.33237372 94.58843329s-95.30837564-42.28461759-95.30837466-94.58843329 42.69258492-94.5884333 95.30837466-94.58843232z"  horiz-adv-x="1024" />

    
    <glyph glyph-name="cross" unicode="&#59944;" d="M68.49373387 40.65789917999996c-25.97814283-25.97814283-25.97814283-68.58871523-0.00310559-94.56789323 25.97710762-25.97710762 68.59492637-25.98642434 94.57720997-0.00621114l348.67439895 348.6785397L860.41663616-53.915170020000005c25.97814283-25.97814283 68.58871523-25.97814283 94.56789321-0.00310558 25.97710762 25.97710762 25.98435397 68.59492637 0.00517598 94.57617478L606.31323601 389.33333333 954.98970535 738.00876748c25.979178 25.98124839 25.97193167 68.59906714-0.00517598 94.57720995-25.979178 25.97503724-68.5897504 25.97503724-94.56789321-0.00310558l-348.67336379-348.67957489L163.06887344 832.58183668c-25.9822836 25.9822836-68.60113753 25.97193167-94.57720996-0.00517597-25.97503724-25.97814283-25.97503724-68.5897504 0.00310558-94.56789323L417.1722736 389.33333333 68.49373387 40.65789917999996z"  horiz-adv-x="1024" />

    
    <glyph glyph-name="home" unicode="&#59946;" d="M648.86369441-112.36566746999995c0 49.94597573 0.15699994 116.93694403-0.04699997 163.9279215-0.17799961 38.17098141-8.18999606 46.40097755-45.69097838 46.56297811-55.75997306 0.22499958-111.5229465 0.20399991-167.28992043 0.00699989-38.21598211-0.12900038-45.48497822-6.90699713-46.0919783-46.10597807-0.73699959-46.92497808-0.17799961-113.88094594-0.17799961-162.95192255-10.54799452-1.22199919-17.93199122-2.77499841-25.32198769-2.80999885-50.53997616-0.2109998-101.08395183-0.63399952-151.61492784 0.03500044-59.96697131 0.78399956-74.12996489 15.78499256-73.70596505 74.54596472 0.3739995 53.1159743-0.45700003 279.15286711 1.00199925 332.24084184 0.2930002 10.5809947 5.84199689 23.82998822 13.51399317 30.96898482 100.77495159 93.71095552 202.2139035 186.72291127 303.83385539 279.52086684 40.54298062 37.00998197 88.38095766 37.45298222 128.98493902 0.05399986 101.87295103-93.82095548 203.16690352-188.27090986 304.01885489-283.18286489 7.08999638-6.68199656 12.03399422-19.15899103 12.23999437-29.05198636 0.25799977-12.83999358 1.37699888-241.56988537 0.40099993-340.18483767-0.36799973-36.88798247-18.55299108-61.57597064-52.65897525-62.85196969C784.31163017-114.11166719000005 718.21966203-112.36566746999995 648.86369441-112.36566746999995zM508.15776191 893.33285296c49.66497605 0.10300008 75.53396419-16.37799187 98.76495332-38.87798119 89.51195728-86.66295848 179.17991438-173.18091755 268.74787177-259.79487582 41.34097997-39.98398064 82.57796072-80.07496186 123.82794112-120.15394256 4.37099808-4.24899759 8.71499573-8.56499569 12.75099427-13.13999367 22.95698934-26.00498742 26.04698775-53.91197437 8.50199569-75.76596366-18.49899122-23.03198887-55.56997392-28.41898598-83.16296002-11.49599489-7.33799686 4.49999747-13.95899367 10.38399469-20.2509907 16.33099191C815.3816158 486.81104703 713.44066414 583.19000136 611.69471225 679.79295514c-75.32196427 71.50496555-104.16295083 72.09096595-180.24991425 1.39799953-101.49295177-94.29995531-202.17890405-189.47691-304.46985516-282.89486531-14.42699311-13.18699364-35.09398364-22.24998956-54.37597429-26.72198747-25.31698805-5.86999744-46.22297794 6.98899655-58.01697267 30.32098552-11.84499422 23.42798916-7.1319967 46.05897811 9.57199556 65.55296869 9.57899545 11.18899491 20.88499022 20.94598997 31.69198462 31.05098521C181.24291742 615.7419852099999 306.82385816 732.76593027 432.01679764 850.23387374 458.27478519 874.86786205 486.87877166 893.00385317 508.15776191 893.33285296z"  horiz-adv-x="1041" />

    
    <glyph glyph-name="select" unicode="&#59947;" d="M1000.89680001 791.5008q9.6768-8.6016 13.9776-25.8048t2.688-37.632-9.1392-39.7824-20.4288-33.3312q-33.3312-34.4064-75.8016-76.8768t-90.8544-89.7792l0-373.0944q0-27.9552-10.752-52.1472t-29.0304-42.4704-42.4704-29.0304-52.1472-10.752l-538.6752 0q-27.9552 0-52.1472 10.752t-42.4704 29.0304-29.0304 42.4704-10.752 52.1472l0 538.6752q0 27.9552 10.752 52.1472t29.0304 42.4704 42.4704 29.0304 52.1472 10.752l538.6752 0q11.8272 0 22.5792-2.1504t21.504-5.376l-111.8208-126.8736-470.9376 0 0-188.16q31.1808-11.8272 61.2864-37.632 26.88-21.504 54.8352-51.072t52.6848-48.9216q21.504-18.2784 46.2336-14.5152t49.4592 26.3424q21.504 19.3536 55.3728 52.1472t74.7264 73.1136 85.4784 84.4032 87.0912 86.5536 79.0272 79.5648 62.3616 62.8992q37.632 37.632 77.4144 37.632t66.6624-24.7296zM148.26320001 115.20000000000005l137.6256 0q-25.8048 5.376-48.9216 16.128t-42.4704 29.0304q-27.9552 25.8048-46.2336 43.008l0-88.1664zM686.93840001 356.0448q-54.8352-53.76-104.2944-101.6064t-84.9408-83.328q-21.504-21.504-49.9968-35.4816t-61.824-20.4288l301.056 0 0 240.8448z"  horiz-adv-x="1024" />

    
    <glyph glyph-name="palette" unicode="&#59948;" d="M676.06711352 887.963523C307.11006067 883.12336195-50.85141022 580.92896344 23.11887625 191.61166805000005c40.08915914-210.96788541 148.99278122-85.64980528 194.92169977 27.09437948 45.29759358 111.6919755 171.87832463 103.9582402 157.25262164-34.30201064-53.18916061-501.69320677 377.69038748-282.20242936 598.49642672-56.29317651C1264.40972392 425.57031867 1045.02416636 892.75107314 676.06711352 887.963523L676.06711352 887.963523zM215.77832674 380.85144014C167.06105477 366.75184031000003 118.92249686 391.74180225 108.40040814 436.56590161 97.93092935 481.44261089 128.86587152 529.1602854800001 177.63575439 543.2072744100001c48.76988288 13.99437802 96.80321897-11.10080377 107.32530867-55.92490313C295.53576269 442.51088184 264.60082052 394.74059733 215.77832674 380.85144014L215.77832674 380.85144014zM381.44861955 545.94301692c-52.18956225 26.83132692-77.07430238 90.17430286-55.39879899 141.46948758 21.62289347 51.50562637 81.4409692 71.3397638 133.57792055 44.71887853 52.13695134-26.88393783 76.91647064-90.27952467 55.34618808-141.52209848C493.40364761 539.20887998 433.58557089 519.0590800800001 381.44861955 545.94301692L381.44861955 545.94301692zM664.54542545 57.92852667c-57.81887902-27.67309453-120.89880337-8.62811283-140.89077253 42.40401933C503.61007385 151.41728708999995 534.28196346 215.33897906000004 592.10084247 243.01207261000002c57.71365819 27.5678737 120.79358255 8.57550291 140.83816261-42.50924016C752.93097424 149.41809036999996 722.31169455 85.65423112999997 664.54542545 57.92852667L664.54542545 57.92852667zM679.32896116 664.36912936c-38.72128739 0-70.1823337 34.77550486-70.1823337 77.54779659 0 42.82490264 31.46104631 77.65301742 70.1823337 77.65301742 38.7738983 0 70.12972378-34.77550486 70.12972378-77.65301742C749.45868494 699.0920233100001 718.10285945 664.36912936 679.32896116 664.36912936L679.32896116 664.36912936zM947.43179069 524.05707188c-39.03695086-16.99317408-85.59719437 11.2586355-104.06346103 62.97470353-18.46626666 51.82128886-1.89397589 107.58836123 37.19558489 124.63414523 38.87911913 16.99317408 85.54458445-11.2586355 104.06346103-62.92209262C1003.09364224 596.8699282499999 986.41613064 541.26068761 947.43179069 524.05707188L947.43179069 524.05707188z"  horiz-adv-x="1113" />

    
    <glyph glyph-name="brush" unicode="&#59949;" d="M147.50382331 888.83663727h666.95045098v-348.98570109H147.50382331zM923.02760351 756.99759463c-23.2657134 0-46.53142681-15.51047559-46.53142682-38.77618901V400.25665573H558.53142681c-23.2657134 0-38.77618901-15.51047559-38.77618901-38.776189v-131.83904263h-46.53142681c-15.51047559 0-31.02095121-15.51047559-31.02095122-31.0209512v-279.18856089c0-15.51047559 15.51047559-31.02095121 31.02095122-31.0209512h155.10475604c15.51047559 0 31.02095121 15.51047559 31.02095121 31.0209512v279.18856089c0 15.51047559-15.51047559 31.02095121-31.02095121 31.0209512h-31.02095121V322.70427772999994h325.71998769c23.2657134 0 38.77618901 15.51047559 38.77618902 38.776189V718.22140562c0 15.51047559-15.51047559 38.77618901-38.77618902 38.77618901z"  horiz-adv-x="1024" />

    
    <glyph glyph-name="select-empty" unicode="&#59950;" d="M910.45333333 893.33333333H124.21333333C63.73333333 893.33333333 13.33333333 842.93333333 13.33333333 782.45333333v-782.88000033C13.33333333-64.26666666999995 63.73333333-114.66666667000004 124.21333333-114.66666667000004h782.88000033c60.48 0 110.88 50.4 110.88 110.88V782.45333333C1021.33333333 842.93333333 970.93333333 893.33333333 910.45333333 893.33333333zM954.133333 49.973333000000025c0-53.75999967-43.67999967-97.44000033-97.43999934-97.43999934H177.973333C124.21333333-47.46666633999996 80.53333366-3.786666670000045 80.53333366 49.973333000000025V728.69333366C80.53333366 782.45333333 124.21333333 826.133333 177.973333 826.133333h678.72000066C910.45333333 826.133333 954.133333 782.45333333 954.133333 728.69333366v-678.72000066z"  horiz-adv-x="1024" />

    
    <glyph glyph-name="select-opp" unicode="&#59951;" d="M924.61376677 898.23248626L107.00020689 898.23248626c-56.44397511 0-102.20105448-45.75707937-102.20105447-102.20105448L4.7991514-21.58212808999997c0-56.44499911 45.75810438-102.20105448 102.20105448-102.20105448L924.61376677-123.78318257000001c56.44499911 0 102.20003048 45.75707937 102.20003047 102.20105448L1026.81379724 796.03143178C1026.81379724 852.47540689 981.05774188 898.23248626 924.61376677 898.23248626zM996.22303254 586.87230645L452.782166 43.432463910000024c-19.81577549-19.81884851-45.98550654-29.85529092-72.02617092-29.85529092s-52.21039543 9.90737575-72.15421257 29.85529092L35.48517959 316.55009184999994c-39.88968432 39.75549663-39.88968432 104.41771784 0 144.17935949 39.8866113 39.75959365 104.41874184 39.75959365 144.18038451 0l201.090432-200.96853638 471.28255594 471.29177498c39.76266667 39.75856965 104.42796089 39.75856965 144.18448152 0C1035.98467521 691.16403064 1035.98467521 626.6319000999999 996.22303254 586.87230645z"  horiz-adv-x="1024" />

    
    <glyph glyph-name="select-radio" unicode="&#59952;" d="M512 893.33333333C233.666 893.33333333 8 667.66733333 8 389.33333333c0-278.397 225.666-504 504-504s504 225.603 504 504C1016 667.66733333 790.334 893.33333333 512 893.33333333zM512-51.66666667000004c-243.558 0-441 197.442-441 441s197.442 441 441 441c243.495 0 441-197.442 441-441S755.495-51.66666667000004 512-51.66666667000004zM512 389.33333333m-315 0a4.921875 4.921875 0 1 1 630 0 4.921875 4.921875 0 1 1-630 0Z"  horiz-adv-x="1024" />

    
    <glyph glyph-name="unselect-radio" unicode="&#59955;" d="M514.98730881-107.84827413000005c-271.1625728 0-491.7649408 220.602368-491.76494081 491.7592064 0 271.1625728 220.602368 491.7649408 491.76494081 491.7649408s491.7706752-220.602368 491.7706752-491.7649408C1006.75224961 112.75409387000002 786.14988161-107.84827413000005 514.98730881-107.84827413000005zM514.98730881 826.16506346c-243.85536 0-442.25413121-198.3930368-442.25413121-442.25413119 0-243.85536 198.39877121-442.2483968 442.25413121-442.24839681 243.85536 0 442.25413121 198.3930368 442.2541312 442.24839681C957.24144001 627.7720266700001 758.84266881 826.16506346 514.98730881 826.16506346z"  horiz-adv-x="1024" />

    
    <glyph glyph-name="block-option" unicode="&#59956;" d="M905.60000001-104.63573366000003H120.43093301c-56.558933 0-102.4 47.479467-102.4 106.0864V779.28106634C18.03093301 837.85386634 63.87200001 885.33333334 120.43093301 885.33333334H905.60000001c56.558933 0 102.4-47.479467 102.4-106.0864v-777.8304c0-58.5728-45.841067-106.052267-102.4-106.052267z"  horiz-adv-x="1024" />

    
    <glyph glyph-name="download" unicode="&#59957;" d="M529.38322995 68.67095696000001c-9.87734822-9.88637328-25.8999741-9.88637328-35.78070698 0L89.00581723 473.29135543c-7.23285864 7.23962799-9.38996715 18.1064027-5.49995136 27.58436919a25.57166945 25.57166945 0 0 0 5.49995136 8.20310715c4.67298373 4.60867711 11.06872184 7.40321584 17.90219985 7.40321584l207.57886978 0.1297422V858.3364397400001c0 6.68342777 2.65915613 13.16942093 7.39531863 17.89317369 4.72375277 4.75421373 11.20184872 7.38629356 17.88414863 7.38629356H684.11180089c13.93095296 0 25.28172408-11.27630936 25.28172407-25.28059511v-341.57460078l207.10051488 0.11507674c10.2372417 0 19.42977534-6.17686759 23.40102225-15.57360519a25.37423594 25.37423594 0 0 0-5.49882239-27.60129258L529.38322995 68.67095696000001z m354.98996742 188.2393506v-239.60494357H142.16636948V256.91030756H18.05475715v-279.8826367c0-44.58175722 36.13947262-80.71446049 80.70994797-80.71446048H924.6429933c44.5659617 0 80.71897411 36.13383223 80.71897302 80.71446047v279.88263671H884.37319737z"  horiz-adv-x="1024" />

    
    <glyph glyph-name="gear" unicode="&#59958;" d="M1013.417 252.37133332999997c1.449-8.694 1.134-19.089-1.134-31.374-2.079-12.285-5.733-24.759-10.773-37.359-5.04-12.663-11.151-24.003-18.333-34.083-7.182-10.143-15.246-17.325-23.751-21.672-8.694-4.41-16.254-6.552-22.743-6.552-6.489 0-13.608 1.386-21.546 4.347-7.182 2.142-16.254 4.158-27.027 5.985-10.899 1.764-21.798 2.079-33.012 1.071-11.151-1.071-22.302-3.402-33.453-6.993-11.088-3.528-20.79-9.765-28.602-18.396-17.325-18.018-27.531-38.619-30.366-61.74-2.835-23.121 0.378-45.108 9.765-66.024 7.182-14.49 6.111-28.854-3.213-43.281-4.284-5.796-11.277-11.718-20.538-17.829-9.387-6.174-19.719-11.781-30.807-16.821-11.088-5.103-22.869-9.009-35.217-11.97C670.382-113.21766666999997 659.609-114.66666667000004 650.159-114.66666667000004c-6.489 0-12.474 2.52-18.333 7.56-5.733 5.103-9.639 10.521-11.907 16.254L618.785-90.85266666999996c-7.938 22.428-21.42 41.643-40.509 57.897-19.089 16.254-41.202 24.381-66.528 24.381-24.507 0-46.683-8.127-66.465-24.381-19.845-16.254-33.705-35.154-41.643-56.826-3.591-8.694-9.009-14.994-16.254-18.963C380.33-112.71366666999995 372.392-114.66666667000004 363.698-114.66666667000004c-10.08 0-21.42 1.764-34.02 5.481-12.6 3.591-25.263 8.127-37.863 13.545-12.6 5.418-24.003 11.718-34.083 18.963-10.08 7.182-17.64 14.427-22.68 21.609-3.591 5.103-5.607 11.025-5.985 17.829-0.378 6.867 2.331 16.443 8.127 28.728 7.938 16.632 10.962 35.532 9.198 56.889-1.764 21.294-10.962 40.95-27.594 58.968-10.08 10.836-22.302 17.829-36.729 21.105-14.427 3.276-28.098 4.536-41.076 3.78-15.183-0.693-30.618-3.591-46.494-8.694-10.08-2.835-20.16-2.079-30.303 2.205-7.938 2.835-15.309 9.513-22.176 19.971-6.867 10.458-12.915 22.113-18.396 34.65-5.418 12.663-9.513 25.578-12.411 38.997-2.835 13.356-3.591 24.318-2.142 33.012C11.213 268.24733332999995 18.395 278.32733333 30.68 282.67433332999997c21.609 8.694 41.013 22.932 58.338 42.84 17.325 19.845 25.956 42.021 25.956 66.591 0 25.2-8.631 47.25-25.956 66.024C71.693 476.96633333 52.226 490.63733333 30.617 499.33133333c-6.3 2.016-11.718 7.245-16.002 15.561C10.268 523.20833333 8.063 531.7133333300001 8.063 540.28133333c0 9.387 1.449 19.908 4.284 31.437 2.835 11.529 6.678 22.743 11.34 33.579C28.412 616.13333333 33.893 626.02433333 39.941 635.09633333 46.115 644.04233333 52.793 650.78333333 59.912 655.13033333c5.796 3.591 11.403 5.04 16.821 4.347 5.418-0.693 11.34-2.142 17.829-4.347 21.609-8.694 44.163-11.34 67.599-8.127 23.373 3.213 44.163 13.545 62.181 30.807 8.631 8.694 14.931 19.341 18.9 31.941 3.906 12.726 6.552 25.137 7.56 37.422 1.134 12.285 1.134 23.436 0 33.516C249.731 790.83233333 248.786 798.01433333 248.093 802.29833333c-1.449 4.347-2.709 9.45-3.78 15.183C243.179 823.27733333 243.746 828.38033333 245.888 832.66433333c4.284 10.08 12.033 18.9 23.247 26.46 11.151 7.56 23.184 13.923 36.225 18.963 12.978 5.103 25.641 8.82 37.863 11.466C355.445 892.07333333 365.21 893.33333333 372.392 893.33333333 381.716 893.33333333 389.15 890.30933333 394.568 884.13533333c5.418-6.174 9.135-12.537 11.277-19.026 7.938-19.467 20.916-36.54 38.934-51.408 18.018-14.805 39.312-22.239 63.819-22.239 25.263 0 47.565 7.056 67.032 21.168C595.097 826.74233333 608.768 844.57133333 616.706 866.24333333 619.541 872.03933333 624.14 878.02433333 630.188 884.07233333c6.111 6.174 12.348 9.198 18.963 9.198 10.017 0 21.042-1.386 32.949-4.347 11.907-2.835 23.625-6.867 35.091-11.97 11.655-5.04 22.302-11.529 31.941-19.467 9.765-7.938 17.451-16.569 23.247-25.956 3.591-5.796 4.662-12.096 3.213-18.9-1.449-6.867-2.835-11.718-4.284-14.616-9.387-20.979-12.222-42.903-8.694-66.024 3.591-23.058 14.112-43.344 31.311-60.669 17.325-17.325 38.619-26.838 63.819-28.728 25.263-1.764 48.699 2.331 70.308 12.474 5.733 3.591 12.726 5.103 21.042 4.347 8.316-0.756 15.246-4.032 21.042-9.702 10.773-10.08 20.286-25.452 28.602-46.053 8.316-20.601 13.86-41.328 16.758-62.244 1.449-12.285-0.504-21.861-5.859-28.728-5.481-6.804-11.025-11.34-16.884-13.545-22.302-7.938-41.328-21.861-57.204-41.643-15.876-19.782-23.751-42.399-23.751-67.662 0-24.57 6.678-46.053 19.908-64.449 13.356-18.333 30.807-31.563 52.353-39.501 5.103-2.835 9.387-5.796 12.978-8.631C1005.164 270.76733333000004 1010.582 262.45133333 1013.417 252.37133332999997L1013.417 252.37133332999997 1013.417 252.37133332999997 1013.417 252.37133332999997zM510.74 154.91033332999996c32.382 0 63.126 6.174 91.854 18.396 28.854 12.285 53.928 29.232 75.222 50.841 21.294 21.735 38.052 46.746 50.274 75.285 12.222 28.539 18.333 59.031 18.333 91.476 0 32.508-6.111 63-18.333 91.476-12.222 28.539-28.98 53.487-50.274 74.718-21.294 21.294-46.305 38.115-75.222 50.337C573.866 619.72433333 543.122 625.89833333 510.74 625.89833333c-32.382 0-62.937-6.174-91.413-18.396-28.35-12.285-53.298-29.106-74.466-50.4C323.63 535.87133333 306.809 510.86033333 294.587 482.38433333 282.302 453.90833333 276.191 423.35333333 276.191 390.90833333s6.174-62.937 18.396-91.476c12.222-28.476 29.043-53.55 50.274-75.285 21.231-21.672 46.179-38.556 74.592-50.841C447.929 161.08433333000005 478.358 154.91033332999996 510.74 154.91033332999996L510.74 154.91033332999996 510.74 154.91033332999996 510.74 154.91033332999996zM510.74 154.91033332999996"  horiz-adv-x="1024" />

    
    <glyph glyph-name="tool" unicode="&#59959;" d="M974.42 808.242c-55.503 56.007-145.404 56.007-200.844 0l-355.068-358.47 200.844-202.86 355.068 358.47C1029.923 661.452 1029.923 752.235 974.42 808.242zM539.027 445.362l-23.94 24.129 300.258 303.219c6.552 6.615 17.262 6.615 24.003 0 6.552-6.615 6.552-17.451 0-24.129L539.027 445.362zM589.049 394.962L565.046 419.091l325.269 328.293c6.552 6.678 17.262 6.678 23.94 0.063 6.552-6.678 6.552-17.451-0.126-24.129L589.049 394.962zM639.008 344.499L615.005 368.62800000000004 915.2 671.784c6.552 6.678 17.262 6.615 23.877 0s6.552-17.451 0-24.129L639.008 344.499zM353.807 84.12L335.6 102.51599999999996 502.928 271.54499999999996 437.156 338.01 269.765 168.981 251.873 187.062 212.498 166.33500000000004 80.891-48.87300000000005 120.077-88.5 331.442 43.16999999999996ZM232.343 856.5c-19.278 0-37.8-2.709-55.629-7.308C178.478 847.617 180.557 846.42 182.195 844.656l80.892-81.648c41.202-41.58 41.202-109.116 0-150.696-41.202-41.58-108.045-41.58-149.247 0L32.948 693.8969999999999C28.727 698.181 25.199 702.906 21.797 707.694 13.04 683.376 8 657.357 8 630.015 8 504.96 108.422 403.593 232.343 403.593c123.858 0 224.28 101.43 224.28 226.485C456.623 755.133 356.138 856.5 232.343 856.5zM917.783-39.297000000000025c48.636 49.203 48.636 128.961 0 178.164l-179.172 180.747-176.463-178.038 179.298-180.873C790.145-88.43700000000001 869.084-88.43700000000001 917.783-39.297000000000025zM798.209 81.47400000000005c20.16 20.349 52.794 20.349 72.954 0s20.16-53.361 0-73.773c-20.16-20.286-52.794-20.286-72.954 0C778.049 28.176000000000045 778.049 61.125 798.209 81.47400000000005z"  horiz-adv-x="1025" />

    
    <glyph glyph-name="tool-box" unicode="&#59960;" d="M715.76800536 694.1119378l0 116.52191094c0.91106299 27.73562268-32.03255736 58.26095546-58.26095546 58.26095546L337.07381154 868.89480551c-26.85416492 0-58.26095546-29.37203741-58.26095548-58.26095546l0-116.52191093L104.0313337 694.1119378c-43.52514428 0-87.39076052-46.44000984-87.39076054-87.38941519l0-145.65171601 990.43221086 0L1007.07278533 606.7225226099999c0 43.36903958-44.13610849 87.38941519-87.3894152 87.38941519L715.76800536 694.1119378zM628.3758995 694.1119378L366.2036166 694.1119378l0 58.26095547c0 17.68028196 11.52219347 29.12980506 29.12980506 29.12980507l203.91132613 0c17.59550095 0 29.12980506-11.45086845 29.12980507-29.12980507L628.37455286 694.1119378zM510.71818651 287.34165063c57.37949901 0 59.39810287 70.52061262 59.39810287 115.46820051L424.46457207 402.80984982c0.98104138-36.17069663 1.13849275-116.52056561 58.26095546-116.52056558C482.72552884 286.28928424000003 498.71287364 287.34165063 510.71818651 287.34165063zM628.3758995 402.80984982c0 0 46.17086161-174.78152107-131.10027205-174.78152106-183.03223041 0-131.07201086 174.78152107-131.07201085 174.78152106L16.63922782 402.80984982l0-407.8239989c0-44.74841933 39.28607605-87.39076052 87.39076054-87.39076052l815.65068979 0c43.75257404 0 87.38941519 37.69407048 87.38941519 87.39076052L1007.07009334 402.80984982 628.3758995 402.80984982z"  horiz-adv-x="1024" />

    
    <glyph glyph-name="enter" unicode="&#59961;" d="M412.42965333 188.274176l77.44187733-77.44187733 274.616832 274.61683201-274.616832 274.61683199-77.44187733-77.44187734 141.70180266-142.25134933H23.02327466v-109.84721066h531.109376L412.42965333 188.274176zM901.797376 879.76038401H132.86929066c-60.96503467 0-109.84721066-49.43052799-109.84721066-109.84721069v-219.69322665h109.84721066V769.9131733199999h768.92689067v-768.92689066H132.86929066V220.67950932999997H23.02327466v-219.69322667c0-60.415488 48.88217599-109.84721066 109.84721067-109.84721066h768.92689067c60.415488 0 109.84721066 49.43052799 109.84721066 109.84721066V769.9131733199999c-0.00119467 60.415488-49.43172266 109.84721066-109.84721066 109.84721069z"  horiz-adv-x="1024" />

    
    <glyph glyph-name="list" unicode="&#59962;" d="M142.66823111 859.48472889q32.62236445 0 55.34151111-22.13660444t22.71914667-54.75896889l0-59.41930667q0-32.62236445-22.71914667-55.3415111t-55.34151111-22.71914667l-61.74947556 0q-31.45728 0-54.17642666 22.71914667t-22.71914667 55.3415111l0 59.41930667q0 32.62236445 22.71914667 54.75896889t54.17642666 22.13660444l61.74947556 0zM941.91616 859.48472889q31.45728 0 54.17642667-22.13660444t22.71914666-54.75896889l0-59.41930667q0-32.62236445-22.71914666-55.3415111t-54.17642667-22.71914667l-497.49105778 0q-32.62236445 0-55.34151111 22.71914667t-22.71914666 55.3415111l0 59.41930667q0 32.62236445 22.71914666 54.75896889t55.34151111 22.13660444l497.49105778 0zM142.66823111 497.14346667q32.62236445 0 55.34151111-22.71914666t22.71914667-55.34151112l0-59.41930666q0-31.45728-22.71914667-54.17642667t-55.34151111-22.71914667l-61.74947556 0q-31.45728 0-54.17642666 22.71914667t-22.71914667 54.17642667l0 59.41930666q0 32.62236445 22.71914667 55.34151112t54.17642666 22.71914666l61.74947556 0zM941.91616 497.14346667q31.45728 0 54.17642667-22.71914666t22.71914666-55.34151112l0-59.41930666q0-31.45728-22.71914666-54.17642667t-54.17642667-22.71914667l-497.49105778 0q-32.62236445 0-55.34151111 22.71914667t-22.71914666 54.17642667l0 59.41930666q0 32.62236445 22.71914666 55.34151112t55.34151111 22.71914666l497.49105778 0zM142.66823111 133.63712001q32.62236445 0 55.34151111-22.71914667t22.71914667-54.17642667l0-59.41930666q0-32.62236445-22.71914667-55.34151112t-55.34151111-22.71914666l-61.74947556 0q-31.45728 0-54.17642666 22.71914666t-22.71914667 55.34151112l0 59.41930666q0 31.45728 22.71914667 54.17642667t54.17642666 22.71914667l61.74947556 0zM941.91616 133.63712001q31.45728 0 54.17642667-22.71914667t22.71914666-54.17642667l0-59.41930666q0-32.62236445-22.71914666-55.34151112t-54.17642667-22.71914666l-497.49105778 0q-32.62236445 0-55.34151111 22.71914666t-22.71914666 55.34151112l0 59.41930666q0 31.45728 22.71914666 54.17642667t55.34151111 22.71914667l497.49105778 0z"  horiz-adv-x="1024" />

    
    </font>
</defs>
</svg>
